<svg id="Layer_1" data-name="Layer 1" xmlns="http://www.w3.org/2000/svg" viewBox="0 0 653.6 371.01"><defs><style>.cls-1{fill:#6b6869;}.cls-2{fill:#040303;}.cls-3{fill:#040304;}.cls-4{fill:#676566;}.cls-5{fill:#494949;}.cls-6{fill:#545455;}.cls-7{fill:#5a2b2c;}.cls-8{fill:#343435;}.cls-9{fill:#0d0b0d;}.cls-10{fill:#484a4b;}.cls-11{fill:#493229;}.cls-12{fill:#484748;}.cls-13{fill:#494547;}.cls-14{fill:#4b4d4e;}.cls-15{fill:#454546;}.cls-16{fill:#4a494a;}.cls-17{fill:#272758;}.cls-18{fill:#4e4d4e;}.cls-19{fill:#22232a;}.cls-20{fill:#525051;}.cls-21{fill:#0e0d0f;}.cls-22{fill:#4b4a4b;}.cls-23{fill:#525155;}.cls-24{fill:#100f10;}.cls-25{fill:#4c4c4d;}.cls-26{fill:#4b494e;}.cls-27{fill:#444345;}.cls-28{fill:#1f1e1f;}.cls-29{fill:#473931;}.cls-30{fill:#414042;}.cls-31{fill:#4d4c4d;}.cls-32{fill:#414347;}.cls-33{fill:#575147;}.cls-34{fill:#5e333c;}.cls-35{fill:#3f3e3f;}.cls-36{fill:#494748;}.cls-37{fill:#565556;}.cls-38{fill:#4d4b4c;}.cls-39{fill:#504f53;}.cls-40{fill:#6b696a;}.cls-41{fill:#1a191b;}.cls-42{fill:#62544c;}.cls-43{fill:#4f4d4e;}.cls-44{fill:#444748;}.cls-45{fill:#4a484a;}.cls-46{fill:#424143;}.cls-47{fill:#b3b1b3;}.cls-48{fill:#706f70;}.cls-49{fill:#535253;}.cls-50{fill:#656364;}.cls-51{fill:#564f43;}.cls-52{fill:#4f4d52;}.cls-53{fill:#252648;}.cls-54{fill:#37393b;}.cls-55{fill:#605e5f;}.cls-56{fill:#fff;}.cls-57{fill:#c28466;}.cls-58{fill:#fff8d5;}.cls-59{fill:#e6e5f3;}.cls-60{fill:#ef4b68;}.cls-61{fill:#fefefe;}.cls-62{fill:#e3e3ed;}.cls-63{fill:#424547;}.cls-64{fill:#5d5c6a;}.cls-65{fill:#533438;}.cls-66{fill:#edf1f3;}.cls-67{fill:#f2f1f1;}.cls-68{fill:#b0aeb0;}.cls-69{fill:#fefdfd;}.cls-70{fill:#f3f2f2;}.cls-71{fill:#454445;}.cls-72{fill:#eae9e9;}.cls-73{fill:#eff7f8;}.cls-74{fill:#464a4b;}.cls-75{fill:#eff6f8;}.cls-76{fill:#454647;}.cls-77{fill:#f6f4f3;}.cls-78{fill:#6f674e;}.cls-79{fill:#6d6550;}.cls-80{fill:#f7f6f6;}.cls-81{fill:#5a5859;}.cls-82{fill:#e5e4f0;}.cls-83{fill:#dddbdc;}.cls-84{fill:#fdfdfd;}.cls-85{fill:#edf0f0;}.cls-86{fill:#444344;}.cls-87{fill:#883a44;}.cls-88{fill:#e1e0e5;}.cls-89{fill:#050405;}.cls-90{fill:#edf1f2;}.cls-91{fill:#f5f4f4;}.cls-92{fill:#7a797a;}.cls-93{fill:#e5e4e4;}.cls-94{fill:#3d489e;}.cls-95{fill:#27285b;}.cls-96{fill:#f6f5f6;}.cls-97{fill:#f4f3f3;}.cls-98{fill:#d9d6de;}.cls-99{fill:#686667;}.cls-100{fill:#f2f0f0;}.cls-101{fill:#f0eeee;}.cls-102{fill:#d1cfd6;}.cls-103{fill:#d2d0d4;}.cls-104{fill:#f8f7f8;}.cls-105{fill:#111314;}.cls-106{fill:#eceff1;}.cls-107{fill:#3d4545;}.cls-108{fill:#5f5d5e;}.cls-109{fill:#504e4f;}.cls-110{fill:#2d2c2d;}.cls-111{fill:#414349;}.cls-112{fill:#181b1c;}.cls-113{fill:#474647;}.cls-114{fill:#2e2e63;}.cls-115{fill:#4d4b4d;}.cls-116{fill:#1b191b;}.cls-117{fill:#3c3a3c;}.cls-118{fill:#555b5c;}.cls-119{fill:#151d1e;}.cls-120{fill:#565d5e;}.cls-121{fill:#515051;}.cls-122{fill:#393839;}.cls-123{fill:#fefcfd;}.cls-124{fill:#f9f9f9;}.cls-125{fill:#43494b;}.cls-126{fill:#292862;}.cls-127{fill:#fcfcfd;}.cls-128{fill:#acb1be;}.cls-129{fill:#edf5f6;}.cls-130{fill:#59554d;}.cls-131{fill:#3c3b3c;}.cls-132{fill:#f4f0d5;}.cls-133{opacity:0.87;}</style></defs><path class="cls-1" d="M711.77,501.67l-60.6-.1a.85.85,0,0,1,0-1.3l60.59-.09Z" transform="translate(-58.18 -155.41)"/><path class="cls-2" d="M458.09,342.5a8,8,0,0,1,1.14,4.92c-1.11,27.58-2.08,55.18-3.27,82.76-.44,10.18-1.37,20.35-2,30.52-.1,1.54,0,3-2.3,2.91-1.6-.06-1.06,1.32-1,2.22.14,4.46.58,8.92.15,13.38-7,.92-14,.13-21,.42-1.59.07-2.08-1.05-2.61-2.18-1.73-9.37-2.26-18.89-3.4-28.34-.63-5.18-2.55-10.08-2.86-15.29a2.74,2.74,0,0,1,1.31-2.16c7.12-2,7.11-2,5.9-9.53-1.11-6.87-1.83-13.8-2.65-20.71-.39-3.27-1.81-3.72-4.72-3.22-7,1.19-13.89,2.84-21,3.49A2.92,2.92,0,0,1,397,399.8c-.89-5-.35-10.12-.41-15.18-.08-6.56-.11-13.12,0-19.68.22-8.93,0-17.87.11-26.8,0-1.7-.29-3.52,1.16-4.9,1.69-1,3.58-.81,5.42-.82,8.78,0,17.56,0,26.35,0,6.06,0,7.22-1.26,7-7.19a3.36,3.36,0,0,1,1-2.25c5.81-2.55,12.19-3.77,17.59-7.33a28,28,0,0,1,2.38-1.65c1-.27,2.08-.8,2.53.74-.12,2.87.3,5.75-.23,8.6l-.24,18.26c-1.58,1.05-1.92-.32-2.64-1.25-3.6-4.62-6.71-9.58-9.79-13.75C450.43,331.64,454.81,336.7,458.09,342.5Z" transform="translate(-58.18 -155.41)"/><path class="cls-3" d="M406.82,184.79a8.9,8.9,0,0,1-2.29-11.27c1.69-3.36,5.75-4.87,10.36-3.4,2.52.8,4.05,1.06,6.1-1.45,3.18-3.91,9.5-2.21,10.76,2.65.43,1.68,1.35,2,2.61,2.6,4,1.8,6,5,5.1,9.25-.72,3.25-1.14,6.49-1.54,9.76-.67.08-.94-.37-1.17-.88-1-4.78-1-4.82-5.33-2.71a11.8,11.8,0,0,1-5.8.81,5.42,5.42,0,0,1-1.54-.32,13.45,13.45,0,0,1-1.38-.66c-1.25-.73-2.92-.21-4-1.34-.35-.39.1-1.18-.69-1.34-2.72.06-5.43,0-8.13.1C408.43,186.65,407.08,186.65,406.82,184.79Z" transform="translate(-58.18 -155.41)"/><path class="cls-4" d="M304.35,358.87q13,10.92,26,21.86c.7.59,2,1.06,1.63,2.22s-1.73.63-2.64.63q-67,0-134.08,0c-8.76,0-15.35-6.12-16.27-14.78a25.15,25.15,0,0,1-.13-2.6q0-49.84,0-99.68c0-9,4.56-14.53,13.42-16.63.42.53,2.12.1,1.2,1.63-10.3,2.94-12.44,10.29-12.31,20.12q.61,46.69,0,93.41c-.11,9.43,6.39,16.15,16.23,16.07,42-.33,84-.14,126-.15a6.06,6.06,0,0,0,2.9-.32c-4.23-4-8.69-7.43-12.93-11.14-3.36-2.94-7.23-5.33-9.87-9.06C303.19,359.61,303.66,359.18,304.35,358.87Z" transform="translate(-58.18 -155.41)"/><path class="cls-5" d="M197.58,526.2l-1.05.07c-1.84-3.29-1-6.79-.67-10.2s1-6.88,1.2-10.37c.12-2.52-.73-3.67-3.35-3.66-10.21,0-20.41,0-30.61,0-3.15,0-4.12,1.64-4.18,4.41-.12,5.35-.74,10.66-1.36,16-.16,1.34-.2,2.75-1.19,3.85l-1.09-.08c-1.24-1.79-1-3.86-.78-5.78,1.88-17.17,2.58-34.41,3.55-51.63.45-8,.2-15.9-2.17-23.64-1.28-4.17-1.61-8.53-2.2-12.84-.18-1.26.16-2.76-1.43-3.69-1.14,1.43-.8,3.1-.91,4.65-.31,4.76-1.08,9.26-4.27,13.21a16.41,16.41,0,0,0-3.69,12.91c.17,1.22.62,3.16-1.21,3.22-1.6.06-1.7-1.84-1.87-3.19-.64-5,.82-9.59,3.16-13.95a5.34,5.34,0,0,0,.56-1.38,4.14,4.14,0,0,1,.82-1.7c2.36-1.71,2.93-4.15,2.89-6.9s-.22-5.24.91-7.71c.88-1.91,2.21-3.53,4.46-3.39,2.48.16,3,2.29,3.32,4.31a57,57,0,0,0,1.8,9.83c.8-1.48.23-3,.05-4.42-1-7.89-1.8-15.8-2.92-23.67-.36-2.56-1.39-3.37-3.93-3-11.7,1.57-23.42,3-35.13,4.53-2.22.3-4.46.34-6.68.7-4.24.69-4.11.67-4,4.85.1,3.3,1.65,6.59.19,9.93a.77.77,0,0,1-1.07.29c-.56-4.55-1-9.12-1.72-13.66-.31-2,.15-2.78,2.35-3,11.73-1.31,23.44-2.81,35.15-4.28,4.43-.55,8.88-1.06,13.28-1.83,2.19-.38,3.06-.09,3.34,2.39,1.23,10.61,2.71,21.18,4.09,31.77.16,1.23.58,2.79-1.3,2.83-2.67.06-2.4,1.58-1.88,3.24,3.47,11.1,1.89,22.44,1.61,33.71-.16,6.21-.64,12.41-1.12,18.61-.16,2.14.49,2.73,2.65,2.72q17.35-.16,34.74,0c2.29,0,2.79-.64,3-2.87,1.12-12.87,2.22-25.74,4.38-38.49a69.63,69.63,0,0,1,1.86-7.19c.34-1.19.89-2.35.12-3.56,1.09-.79,1.63,0,2.18.75a5,5,0,0,1-.06,2.93c-4.48,17.14-5,34.79-6.73,52.29-.59,6.17-1.53,12.31-1.55,18.52A4.71,4.71,0,0,1,197.58,526.2Z" transform="translate(-58.18 -155.41)"/><path class="cls-6" d="M530.22,526.24l-1.08,0c-1.39-1.78-1.43-3.92-1.56-6-1.3-20.07-2.54-40.14-5.32-60.08a47.78,47.78,0,0,0-3.39-12.66c-1.19,2-.41,3.35-.22,4.69s.57,2.93.68,4.42c.09,1.15.72,2.84-.87,3.14s-1.85-1.39-2.11-2.58c-1.21-5.46-2.1-11-3.94-16.3-.63-1.8-.93-4.08-3.74-3.83-1-.22-1.95-.59-2-1.88,2.46-3.25,4.36-3.31,6.57-.18a3.52,3.52,0,0,1,.87,1.63c.21,5.57,5.12,7.1,8.47,10,1,.84,2.1.6,3.19.19,1.37-.52,1.32-1.69,1.15-2.81-1.1-7.26-1.88-14.56-2.78-21.84-.28-2.24-1.31-2.51-3.27-2.17-11.9,2-23.75,4.41-35.66,6.35-2.95.48-3.69,1.94-3.23,4.65a32.42,32.42,0,0,1,.72,8.51,1.89,1.89,0,0,1-1.32,1.15L479.23,427c-.27-1.67.71-2.06,2.13-2.32Q502,421,522.71,417.19c2.14-.39,3.1.08,3.37,2.44,1,8.63,2.08,17.25,3.42,25.83.56,3.59-1.83,3.6-3.92,3.75-2.69.2-3.21,1.05-2.55,3.72,2.61,10.65,3.36,21.56,4.17,32.46.32,4.21.78,8.4,1.14,12.61.12,1.37.38,2.23,2.14,2.23q40.88-.19,81.73-.25a1.37,1.37,0,0,1,0,1.95c-1.92,1.26-4.09.9-6.18.91q-34.4,0-68.78,0c-1.24,0-2.49,0-3.73,0-2.69-.06-3.9,1-3.44,3.86.77,4.8.22,9.7,1,14.52A5.9,5.9,0,0,1,530.22,526.24Z" transform="translate(-58.18 -155.41)"/><path class="cls-7" d="M207.05,448.59l-1.75-.54c-8.31-.64-8.17-.61-6.75-8.71q2.25-12.81,4-25.7c.36-2.65,1.07-3.64,3.91-3.18q24,3.9,48.13,7.51c2.4.37,2.24,1.74,2,3.48q-2.1,13-4.14,26.06c-.24,1.46-.35,2.95-.65,4.41-.34,1.68-.06,4-3.16,3.1-1.33-.39-1.55.93-1.73,1.89-.36,1.94-.65,3.9-1,5.85a.66.66,0,0,1-1-.18c-.81-1.4-.49-2.88-.3-4.35.16-1.28.27-2.63-1.38-3s-2.44.85-2.79,2.28a14.65,14.65,0,0,1-2,5.15c-1,1.36-2.12,2.59-4,2-1.7-.55-2-2.08-2.05-3.61a37.88,37.88,0,0,1,.74-10.35,114.83,114.83,0,0,0,2.05-11.35,10.56,10.56,0,0,0-.56-5.9c-2,2.53-2.62,5-3.36,7.45-1,3.31-1.19,6.85-3,9.92-.68.33-1.08,0-1.42-.56-1-2.91.38-5.62.78-8.41.38-2.58,1.12-5.11.91-7.75,0-.7.1-1.66-.83-1.84s-1.33.63-1.63,1.29a48.37,48.37,0,0,0-3.71,13.23c-.31,2-.32,4-1.66,5.63-1.06.22-1.31-.55-1.6-1.29-.48-3,.58-5.89.95-8.83a29.88,29.88,0,0,0,.11-7.49c-2,1.34-2.45,3.16-3.08,4.78a97.34,97.34,0,0,0-4.09,14.31,11.93,11.93,0,0,1-.49,1.8c-.44,1.09-.66,2.8-2.2,2.4-1.22-.33-.88-1.89-.68-3,.38-2.08,1-4.11,1.29-6.2.14-.95.66-2.2-.42-2.7s-1.51.94-2.16,1.58A2.84,2.84,0,0,1,207.05,448.59Z" transform="translate(-58.18 -155.41)"/><path class="cls-8" d="M459.93,323.31l-.21-9.58c2-2.73.09-5.76.67-8.61a1.29,1.29,0,0,1,1-.22c3.21,3.89,3.25,3.94,7.23.22,7.57-7.07,14.63-14.55,18.84-24.23a4.55,4.55,0,0,1,1.49-2.1,1.09,1.09,0,0,1,1,.23c-1.61,6.66-5.94,11.82-10.15,17.8h14.08c7.95,0,15.9,0,23.85-.05.91,0,2.73,1.06,2.65-1.29a.62.62,0,0,1,0-1c3.19.71,6.34,1.76,9.68.92.73.06,1.42.33,2.15.41,3.93.17,7.86,0,11.79.07,1.21,0,2.51.16,3.15-1.28a2,2,0,0,1,1-.4c1.51.15,2.81,1,4.26,1.3a12.14,12.14,0,0,0,10.53-2.14c2.67-2,4.87-4.61,8.08-5.83a1.17,1.17,0,0,1,1.18.89c.05.81-1.86,2.13.7,2.28,1.08.07,2.48-.15,3,1.36a2.2,2.2,0,0,1-1.77,1.2c-2.9.49-6.28-.93-8.77,2.45,11,.46,21.83-.32,31.75.46-1.44-.17-3.81-.06-6-1a1.24,1.24,0,0,1-.64-.88c-.38-.71,2.53-.41.46-1.82a3,3,0,0,1-1.08-3.91,1.31,1.31,0,0,1,1.11-.06c6.57,6.42,14.28,8,23,5.42a8.12,8.12,0,0,1,3.27-.61c.6.16,1.1.39,1.08,1.14l-4.19,2,.1.5h38.13c-2,1.13-3.57.73-5,.73q-81.64,0-163.28-.06c-3.65,0-6.29.81-8.7,3.62A59.56,59.56,0,0,1,464,311.46a7.5,7.5,0,0,0-3.61,7.45A25.39,25.39,0,0,1,459.93,323.31Z" transform="translate(-58.18 -155.41)"/><path class="cls-9" d="M374.66,481.45c-.44-1.75-1.78-1.7-3.2-1.69-4.35.05-8.7,0-13,0-1.55,0-3.44.44-4-1.73a4.33,4.33,0,0,1,2.15-5.09,15.33,15.33,0,0,1,3.09-1.19c3.63-1.21,7.3-2.33,10.92-3.59,4.7-1.64,4.73-1.81,2.11-6.09a1.63,1.63,0,0,0,1-1.8c.11-2.14-.64-4.26-.11-6.4,1-1.19.68-2.61.69-3.95,0-7.46,0-14.93,0-22.39a.8.8,0,0,1,.84-.8c1.7,1,1.72,2.83,2,4.49.49,3.12.75,6.28,1.55,9.36a1,1,0,0,1-.7.95c-.3.71-1.83-1.43-1.74,1.16.41,12.54.65,25.1-.07,37.65C375.81,481,375.52,481.57,374.66,481.45Z" transform="translate(-58.18 -155.41)"/><path class="cls-10" d="M346.92,269.23c-5.89-7.4-9.09-16.12-12-24.92-1.52-4.55-3.47-9-3.68-13.92a.54.54,0,0,1,.86.13c2.88,4.14,2.87,4.12,7.76,1.68a30.76,30.76,0,0,0,6.1-4.17c1.05-.89,1.61-2.11.39-3.16s-1.7.43-2.31,1c-3,3.08-6.81,4.35-10.94,4.9a1.38,1.38,0,0,1-1.27-.61,1.36,1.36,0,0,1,.06-1.52c2.15-1.26,4.7-1.46,6.91-2.6,2.49-1.28,3.7-3,3.14-6-.73-3.88-1.56-7.75-2.13-11.67a6.89,6.89,0,0,0-2-4.32c-3.16-2.76-5.71-6.13-8.85-8.9a1.46,1.46,0,0,1-.78-1.37c1.86-1.13,3.24-1.17,4.24,1.25a8,8,0,0,0,2.85,3.83c6.45,3.69,6.85,10.16,8,16.35.21,1.23.43,2.45.61,3.68s-.13,2.87,2.18,2.39c1.2-.25,1.52,1.09,2,1.88,4.14,6.34,8.34,12.64,12.31,19.09,1.38,2.24,2.31,2,4.07.48,7.5-6.53,15.11-12.93,22.68-19.39,6.78-5.77,14.69-9.09,23.34-10.83a1.13,1.13,0,0,1,.26,1c-.5,1-1.53,1.23-2.48,1.46-11.4,2.76-20.25,9.8-28.73,17.36-4.17,3.72-8.56,7.18-12.64,11-1.59,1.49-1.68,2.56.17,3.78a12,12,0,0,1,3.56,3.26c.42.62.83,1.39.27,2s-1.36.18-2-.2c-1.16-.72-2-1.86-3.24-2.47-.54.13-.36.52-.32.84.16,1.11.51,2.55-.85,2.85-1,.22-1.54-1.11-1.86-2-2.55-7.4-7.73-13.28-11.55-19.94-1.09-1.9-2-2.48-3.91-.72a22.89,22.89,0,0,1-8.55,5.18c-2.9.89-3.59,2.56-2.63,5.35a127.79,127.79,0,0,0,9.91,22.88c.75,1.28,1.71,2.47,1.55,4.1A1.85,1.85,0,0,1,346.92,269.23Z" transform="translate(-58.18 -155.41)"/><path class="cls-11" d="M651.18,500.27v1.3c-1.58,2.85-.11,5.67.06,8.51.32,5.4.55,10.81.82,16.21l-1.63,0c-1-1.13-1-2.51-1-3.88,0-4.24-.47-8.45-.6-12.66-.43-13.8-1.43-27.56-1.73-41.36-.22-10.06-1.25-20.1-1.48-30.17-.07-2.86-1.11-3.28-3.35-1.7-.3.21-.45.63-.81.76-2.24.75-2.43-3.62-4.37-2.14s-2.7,1.7-4-.29c-.61-.94-1.69-2-2.59-.44-1.72,3-2.69,1.54-3.74-.41a1.36,1.36,0,0,0-1.48-.82c.31,2.2,1.47,4.12,1.79,6.25a13,13,0,0,1-.12,6.27c-.35,1-.58,2.48-2,2.3s-1.2-1.67-1.1-2.72a18.2,18.2,0,0,0-1.34-9.12c-1.23-2.88-3.71-5-4.61-8.08s-.28-6.19-1.12-9.86c-1.41,3.7-1.26,7.05-2,10.22-.89,4.09-1.1,8.37-3.37,12.08-1.7-.79-.87-2.13-.72-3.32.21-.94.41-1.87.62-2.81.53-2.28,2.28-5-1.94-5.66a5.55,5.55,0,0,1,0-1,2.12,2.12,0,0,1,1-.5c1.59-.17,1.41-1.45,1.6-2.51.44-2.56.56-5.17,1.11-7.71.32-1.49,1.08-2.9,2.79-3.1,1.87-.22,2.94,1,3.67,2.58a17,17,0,0,1,1.21,7.26c0,4.21.58,5,4.73,5.62,3,.46,6.06,1.22,9.18,1.06,2.42.34,4.83.72,7.25,1,2.48.82,5.35.13,7.59,1.91a.8.8,0,0,1,.08,1.1c-1.46-.05-2.16.36-2.07,2.1.89,17.48,1.58,35,2.59,52.43C650.43,492.73,649.72,496.61,651.18,500.27Z" transform="translate(-58.18 -155.41)"/><path class="cls-12" d="M290.09,451.72c10.39-1.86,20.79-3.66,31.15-5.66,2-.39,2.83.2,3.06,2q1.8,13.67,3.52,27.34c.34,2.72-2,2.25-3.29,2.33-3.35.21-4.11,1.35-3.08,4.65,2.41,7.68,2.35,15.68,2.4,23.65.22,2.58.77,5.17-.29,7.71-2.35-1-1.55-3.14-1.55-4.8,0-9.86-.55-19.65-3.34-29.18-.37-1.24-.29-2.77-2-3.59-.8,2.64.69,4.91.83,7.3.1,1.62,1.28,4-.86,4.47-1.61.32-1.8-2.3-2.23-3.78-1.43-4.89-1.74-10.06-3.65-14.84a11.75,11.75,0,0,0-2-4.18,16.11,16.11,0,0,0-.08,6.29c.25,2.57,1.28,5.1.43,7.73a1.35,1.35,0,0,1-1.05.46c-1.87-.62-1.57-2.33-1.81-3.72A63.38,63.38,0,0,0,302.29,462a14.26,14.26,0,0,0-.28,8.21c.9,4.5,1.31,9.08,2.21,13.58a7.42,7.42,0,0,1,.2,1.47c0,1.32.38,3.27-1.18,3.48s-1.87-1.8-2-3.05c-.51-7-2.64-13.61-4.23-20.36a2.8,2.8,0,0,1,.32-1.1,8.38,8.38,0,0,0,1-2c1.64-4.47,3.47-4.84,6.84-1.4.48.5.65,1.27,1.71.93,3.21-1,4.47,1.22,5.57,3.55a24.3,24.3,0,0,1,1.64,4.16c.47,1.84,1.21,3.16,3.41,3.19,1.18,0,2,1,2.69,1.85a3.1,3.1,0,0,0,4,1c1.49-.7,1.06-2.05,1-3.27-.52-6.93-1.7-13.78-2.57-20.68-.32-2.48-1.49-3.43-4.06-2.85-7.51,1.71-15.2,2.41-22.72,4.08-1.81.41-3.65.95-5.46,0A.71.71,0,0,1,290.09,451.72Z" transform="translate(-58.18 -155.41)"/><path class="cls-13" d="M378.3,441a1.94,1.94,0,0,1,.06-.59c1.47-2.57,4.22-1.95,6.46-2.63,2.42-.75,5.62.18,6.9-3.12.46-.65.79-1.58,1.88-.86,1.92,3.09,2.18,6.55,2.14,10.05,0,1.55-.46,3.06-2.13,3.6s-3.14-.28-4.31-1.53a9.07,9.07,0,0,1-1.5-2.57c-.61-1.32-1.34-2.44-3.08-2-2.05.5-1.86,2.07-1.66,3.57.6,4.69,1.08,9.4,1.86,14.06,3.1,18.54,5.47,37.15,5.73,56,0,1.62.5,3.2.57,4.81.1,2.21.62,4.49-.85,6.5l-1.62,0c.32-7.71-.24-15.39-.66-23.08-.15-2.74-1.92-2.07-3.38-2.08-17.42,0-34.85,0-52.27,0-1.57,0-3.2.4-5-.44,1.36-.91,2.7-.53,3.94-.53,17.67,0,35.34-.1,53,.05,3.1,0,3.74-.75,3.14-3.75a59.38,59.38,0,0,1-1-10.74c0-3-1.24-3.68-4-3.64-2.59,0-5.35,1-7.84-.62l.69-.75c1.85-1.47,4-.95,6.11-1s3.27-.8,2.9-3.15c-1.69-10.54-3.11-21.12-4.68-31.68A24.26,24.26,0,0,0,378.3,441Z" transform="translate(-58.18 -155.41)"/><path class="cls-14" d="M437.35,192.22l.57.71c-3.34,4.85-1.73,10.34-1.77,15.55,0,2,2.08,3.49,4.32,4,24.19,5.45,39.28,21.09,48.38,43.35a31.16,31.16,0,0,1,2.26,10.46,1,1,0,0,1-1,0,2.93,2.93,0,0,1-1.1-1.89c-2.27-11.84-8-21.81-16.11-30.62-7.74-8.42-16.76-14.77-27.77-18.12-4.24-1.29-4.22-1.3-6,2.69a37.07,37.07,0,0,1-2.9,5.64c-2,3.08-3.7,3-5.38-.18A5.38,5.38,0,0,1,430,221a2.38,2.38,0,0,1,.4-1c2.15-.62,1.79,2,3.16,2.45a16.93,16.93,0,0,0,3.39-7.22c.15-.85.2-1.82-.77-2.23s-1.29.45-1.8.95c-1.37,1.34-2.43,3.22-4.85,2.68a.87.87,0,0,1-.57-.9c4.85-4.31,5.59-9.87,5.2-15.95C434,196.91,433.73,193.64,437.35,192.22Z" transform="translate(-58.18 -155.41)"/><path class="cls-15" d="M481.42,440.52l.69-.86c2.33,3.21,1.91,7.1,2.44,10.71.43,3,1.44,4.05,4.32,3a7.84,7.84,0,0,1,1.09-.25c5.46-1.08,5.46-1.08,5.56-6.37.32-.93.29-2.21,1.87-1.84a41.24,41.24,0,0,1,2.25,17.23c-.13,1.57-.71,3-2.49,3.3s-2.77-.86-3.56-2.21A14.82,14.82,0,0,1,492.3,459c-.22-1-.47-2.12-1.76-2s-1.25,1.33-1.27,2.3a22.2,22.2,0,0,0,.35,3.72c2.42,15.37,4.59,30.78,5.48,46.32.33,5.65.78,11.36-.12,17l-1.61,0a169,169,0,0,0-1.4-24.63,1.15,1.15,0,0,1-.07-1.59c-.38-11.31-2.34-22.42-4-33.57-.35-2.33-.58-4.67-.93-7-.25-1.69.21-4-2.93-3.32-.84.18-1-.86-1.09-1.63C482.48,449.87,481.26,445.27,481.42,440.52Z" transform="translate(-58.18 -155.41)"/><path class="cls-16" d="M290.09,451.72l0,.72c-1.2,2.61-3.83,1.78-5.82,2.3-4.26,1.1-4.42,1.09-3.79,5.51.89,6.26,1.74,12.54,2.35,18.83.25,2.54,1.2,3.51,3.82,3.06,9-1.57,7.32-.48,6.59-8.62-.27-3-1.08-6,.57-8.72.84-1.39,2.05-3.83,4-.75l-.46.47c-1.65,3.43-1.05,7-.66,10.56.36,3.32,1,6.62,1.49,9.92.32,2.05.32,4.2-1.95,5.09s-3.67-.69-4.75-2.52c-.6-1-1-2.64-2.58-2.16-1.93.59-1.34,2.38-1.18,3.81.77,7.15,2,14.24,3.08,21.34a12.14,12.14,0,0,1,0,4.95c-.26.59-.54,1.16-1.34,1.07-1.35-9.45-2.65-18.92-4.07-28.37-.23-1.52-.13-3.62-2.92-3.1-1,.17-1.21-1-1.31-1.93-1.09-9-2.12-18-3.33-27-.28-2.1.68-2.66,2.32-2.92C283.46,452.73,286.78,452.23,290.09,451.72Z" transform="translate(-58.18 -155.41)"/><path class="cls-17" d="M202.58,249.63c.18-1.23-1.07-1.65-1.46-2.55-.33-2.24,1.75-1.67,2.76-2.36a149.17,149.17,0,0,0,31.69-10.43c.72,0,1.45-.63,2.16,0,0,4.42,0,8.84.05,13.25,0,.81-.26,1.76.71,2.3a4.07,4.07,0,0,1,.68,1c.16,2.57,1.37,5.1.39,7.73a1,1,0,0,1-1,.36c-2.13-1.94-2.22-4.63-2.4-7.18-.17-2.34-.52-4.66-.75-7-.15-1.43-.65-2.11-2.12-1.4-8.29,4-17.27,6-26,8.61a3.57,3.57,0,0,1-1,.36,1.52,1.52,0,0,1-1-.43c-.41-1.05-2-1.86-.68-3.27,8.82-1.47,17.45-3.61,25.59-7.43,1.54-.72,3.23-1.2,4.81-3.07-3.45,1.15-6.24,2.43-9.1,3.51A178.47,178.47,0,0,1,208,247c-1.43.37-3,.51-3.8,2C203.79,249.48,203.5,250.33,202.58,249.63Z" transform="translate(-58.18 -155.41)"/><path class="cls-18" d="M590.59,288.69l-.84,0c-2-.76-1.47-2.36-1.18-3.75a15.15,15.15,0,0,1,3.23-6.65c7.41-8.91,10.62-19.25,10.51-30.72,0-3,0-5.8,3.75-6.65,1.12-.26,1.32-1.4,1.48-2.4.28-1.71.6-3.43.76-5.16.63-6.75,1.92-6-5.8-7-5.67-.68-11.36-1.26-17-2.06a2.16,2.16,0,0,1-1-.71c-.16-.75.28-1.11.9-1.35,7.89.91,15.77,1.87,23.67,2.69,1.66.17,2.12.79,1.92,2.35-.31,2.47-.46,4.95-.74,7.42-.81,7.28,0,14.53.5,21.79a1.17,1.17,0,0,1-1.12.22c-1.46-1-1.22-2.62-1.28-4.07-.09-2,0-4-.08-6,0-.82,0-2-1.17-2s-1.07,1.16-1.21,2c-.81,4.9-.74,9.91-2.11,14.76-1.77,6.3-4.18,12.31-8.44,17.3C592.81,281.74,592.07,285.35,590.59,288.69Z" transform="translate(-58.18 -155.41)"/><path class="cls-19" d="M374.39,403.59c0-21.63-.14-43.26,0-64.89,0-3.43-.88-4.37-4.32-4.33-8.19.1-16.41.51-24.6-.23,0-.92.67-1.17,1.34-1.44,6.95-.74,13.91-.2,20.87-.33,5.41-.11,5.68-.32,5.72-5.69,0-5.1-.09-10.2.06-15.29.13-4.16,1-5,5.13-5.15s8.21-.12,12.31,0,4.81.91,5.31,5.05c-.64,1.72-1.54,2.36-2.75.5-.54-.82-.75-1.86-1.83-2.21-4-.58-8-.21-11.95-.21-2.18,0-3.11,1.18-3.13,3.28,0,1.37,0,2.74,0,4.11q0,40.33,0,80.67a19.16,19.16,0,0,1-.42,5.94C375.6,404.07,375.22,405.5,374.39,403.59Z" transform="translate(-58.18 -155.41)"/><path class="cls-20" d="M520.46,294.4c0,.36-.09.72-.13,1.08C513,286,506.3,276,501.45,264.94c-3.85-8.8-2.93-17.14,4.27-23.44,6.37-5.56,7.37-11.85,5.81-19.34a1.2,1.2,0,0,1,1.07-.31,1.49,1.49,0,0,1,.83.75c2.41,7.31,1.12,13.75-4.75,18.93-8.76,7.72-8.63,15.58-4.21,25.15,3.92,8.47,9.33,16.07,14.5,23.8C519.75,291.64,521.19,292.63,520.46,294.4Z" transform="translate(-58.18 -155.41)"/><path class="cls-21" d="M328.19,193.88a.9.9,0,0,0,1.09.73c-.42,3,1.65,5.58,1.75,8.51-.39,1.69-1.64,1.53-2.9,1.35-1.51-1.53-3.3-2.76-4.58-4.53-.43-1.32,2.22-1.63,1.05-3.2q-.83-8.16-1.66-16.34c-.4-.94.16-1.48.82-2a5.06,5.06,0,0,1,3.49-.24c.56.24,1.06.53.91,1.27-1.62.11-1.54,1.21-1.4,2.37Q327.48,187.84,328.19,193.88Z" transform="translate(-58.18 -155.41)"/><path class="cls-22" d="M649.69,434.44c0-.23,0-.46,0-.68.94-1.11,3.91-.05,3.16-3,.73-7.68,1.65-15.34,2.7-23,.39-2.84-.58-3.78-3.22-4.06-9.4-1-18.77-2.33-28.13-3.64-2.36-.84-4.88-.41-7.28-.91-2.63-.56-2,2.43-3.45,3.1a.92.92,0,0,1-1.05,0c0-.49,0-1,0-1.48,0-3.07.83-4.51,4.61-3.93,12.76,2,25.58,3.56,38.41,5.12,2.27.28,2.94.95,2.66,3.21-1.16,9.24-2.11,18.51-3.27,27.75C654.28,437,651.62,434.71,649.69,434.44Z" transform="translate(-58.18 -155.41)"/><path class="cls-23" d="M346.26,333.46l-.79.68c-3.14-.86-3.94-3.43-4.52-6.18-1.89-9-3.88-17.9-5.62-26.89-.48-2.5-1.29-3.57-4-3.36-3.67.29-7.37.07-11.06.07v-1c3.75,0,7.51-.14,11.24.05,2.45.12,3-.63,2.45-3-1.14-4.69-2.1-9.42-3.06-14.15-.81-4,1.32-6.72,5.61-7.33a1.23,1.23,0,0,1,.21,1.14c-3.57,2.48-3.86,5.72-3,9.77,3.16,14.29,6.29,28.6,9.05,43C343.3,329.08,345.39,330.92,346.26,333.46Z" transform="translate(-58.18 -155.41)"/><path class="cls-24" d="M332.08,230.5l-.86-.11c-4.5-.3-3.76-3.66-3.85-6.55a5.41,5.41,0,0,1-.68-1.36c-.09-2.54-2.14-3.48-3.84-4.7a1.3,1.3,0,0,1,0-1c1-1,3.41-.31,3.29-2.7a10.4,10.4,0,0,1,.4-1.92c.55-1.75-1.07-3.13-.81-4.83a3.71,3.71,0,0,1,2.31-1.3,2.72,2.72,0,0,1,1.17,0,2,2,0,0,1,1.21,1.28c1.21,5.93,1.48,12,2.34,18a4,4,0,0,1-.78,3.49l.06,1.72Z" transform="translate(-58.18 -155.41)"/><path class="cls-25" d="M104.76,427.68l.82,0c1.65.39,1.47,1.84,1.64,3a100.5,100.5,0,0,1,1.52,11.85c.08,2.52,1.17,3.52,3.81,3.17s5.14-1.08,7.77-.41a1.71,1.71,0,0,1,1,1.55c-4,2.13-4.18,5.95-4.29,9.79-.28,10.24-1.44,20.43-1.78,30.66a3,3,0,0,1-1,1.63,1.08,1.08,0,0,1-1.2.1c.68-12.36,1.41-24.72,2-37.08.23-4.48.07-4.75-4.25-3.74-2.93.69-3.82-.17-3.91-2.9C106.72,439.34,104.71,433.63,104.76,427.68Z" transform="translate(-58.18 -155.41)"/><path class="cls-26" d="M319.24,176.59c-3.73.37-7.72-1-11.08,2.1-.73.66-3,1.19-3.21-1.38-.47-5.54-.9-11.08-1.54-16.59-.26-2.27,1.42-3.05,2.54-2.4,4,2.3,7.91.19,11.83.47.61.24,1,.57.74,1.31-1.8,1.62-4,.91-6.08,1.11-2.48.25-4.11,1-3.47,3.94a10.45,10.45,0,0,1,.08,1.86c.26,8,.39,8.11,8,7.09a37.84,37.84,0,0,1,4.26,0c1,.14,2.08.23,2.57,1.37-.41,1.18-1.5,1.11-2.43,1.33A3.34,3.34,0,0,1,319.24,176.59Z" transform="translate(-58.18 -155.41)"/><path class="cls-27" d="M318.65,159.47l-.87-.68,16.68-1.74a4.4,4.4,0,0,0,1.47-.22c4.73-2.24,4.66-2.25,5.07,3,.35,4.33.77,8.66,1.35,13,.36,2.66-1.29,4.09-3,2.85-2-1.48-4-.79-5.87-1.22a.83.83,0,0,1,0-1c3.92-1.76,4.1-2.22,2.93-7.68-.81-7.39.6-6.33-7.37-6C325.58,159.86,322.06,161.58,318.65,159.47Z" transform="translate(-58.18 -155.41)"/><path class="cls-28" d="M304.35,358.87l-.66.75c-1.45-1.2-1.31-2.9-1.32-4.49q-.08-43.71,0-87.42a10.62,10.62,0,0,1,.32-3c.26-.71.56-1.4,1.49-1.42.05,13.44.13,26.87.16,40.3Q304.38,331.25,304.35,358.87Z" transform="translate(-58.18 -155.41)"/><path class="cls-29" d="M612.26,501.8c0-.61,0-1.21,0-1.82-.67-10.53-1.56-21.05-1.51-31.62-.48-2.63-.12-5.29-.21-7.93,0-.77.12-1.46,1.13-1.44a4.06,4.06,0,0,1,1.07,3.08c.09,10.3,1.11,20.56,1.52,30.84Q614.7,505,615.55,517c.13,2,.6,4-1.09,5.61l-.75,0c-1.48-.25-1.6-1.51-1.62-2.56q-.15-7.41-.83-14.8A4.15,4.15,0,0,1,612.26,501.8Z" transform="translate(-58.18 -155.41)"/><path class="cls-12" d="M427.73,477a3.34,3.34,0,0,0,3.65,2.23c6.45-.15,12.91,0,19.36,0-2.12,1.52-4.51.49-6.76.63-3.21.2-6.45.06-9.68.05-5.54,0-5.53,0-5,5.65.27,2.84.58,5.68.77,8.52.38,5.63.35,5.63,5.58,6.43-.11.18-.2.48-.33.49-4.84.56-4.81.56-4.42,5.73s.74,10.62,1.1,15.94l-.69.81c-2.08-.69-1.72-2.54-1.77-4.05-.41-12.31-1.7-24.54-2.83-36.78C426.54,480.68,426.11,478.64,427.73,477Z" transform="translate(-58.18 -155.41)"/><path class="cls-30" d="M112.14,526.34l-1.57-.05c.5-7.31.91-14.62,1.54-21.92.23-2.61-.56-3.33-3.2-3.31-15.41.12-30.82.07-46.23,0-1.28,0-2.68.46-4.5-1H112c1.36-.16,1.5.9,1.82,1.78.88,7.41-.73,14.73-.69,22.11A3.63,3.63,0,0,1,112.14,526.34Z" transform="translate(-58.18 -155.41)"/><path class="cls-31" d="M585.4,222.3l-.88.69a4.76,4.76,0,0,1-4.5.81,53.42,53.42,0,0,0-8-.73c-6.61-1-13.27-1.6-19.87-2.6-2.42-.36-3.71.36-4,2.94-.7,5.4-1.34,10.8-2,16.2-.18,1.42.07,3.06-1.69,3.8a1.31,1.31,0,0,1-1.14-.48c1-7.48,2.19-14.94,3-22.44.28-2.45,1-2.61,3.27-2.32C561.5,219.68,573.46,221,585.4,222.3Z" transform="translate(-58.18 -155.41)"/><path class="cls-32" d="M336.47,273.11v-.75h12.45l-2-3.13.16-1.1c8.26,5.6,17.51,2.42,26.33,2.87,2.79.14,4.84-2.31,7.13-3.76,1.86-1.18,3.31-3,5.65-3.42a1,1,0,0,1,.72.81c-.71,3.48-4.22,4.22-6.3,6.63,2.82,0,5.63-.08,8.43.06,1.35.06,3.06-.41,3.65,1.57a2,2,0,0,1-1,.82,11.93,11.93,0,0,1-4.06.47q-23.1,0-46.19,0C339.73,274.17,337.93,274.38,336.47,273.11Z" transform="translate(-58.18 -155.41)"/><path class="cls-33" d="M245.14,462.75h.74c-1.78,11.47-3.41,23-5.43,34.4-.52,2.92.49,3,2.71,3,3.32-.11,6.64,0,10,0l0,1.06a87,87,0,0,1-8.7-.07c-3.08-.3-5,.37-5.07,3.83a2.16,2.16,0,0,1-1.46-1.27c-.68-4,.42-7.85,1-11.73,1.26-8.92,3-17.78,4.55-26.65C243.65,464.23,243.65,463,245.14,462.75Z" transform="translate(-58.18 -155.41)"/><path class="cls-34" d="M374.39,403.59c.28.38.56.81,1,.15,3.88-2.19,8.32-2,12.5-3,1.56-.36,3.16-.53,4.74-.81a17,17,0,0,1,1.75-.15c1.1,0,2.24-.61,3.3.19.55.94,1.56.59,2.36.83-.45,2-2.24,1.64-3.58,1.89-6.24,1.14-12.51,2.1-18.75,3.22-2.87.51-3.67,1.83-3.19,4.62.71,4.16,1.05,8.38,1.51,12.58.14,1.36.44,2.74-.72,3.85a3.39,3.39,0,0,0-.57.14c-1.12-.83,0-2.28-.88-3.18-.74-5-1.4-10.08-2.24-15.09C371.19,406.28,371.38,404.25,374.39,403.59Z" transform="translate(-58.18 -155.41)"/><path class="cls-35" d="M406.82,184.79c2.94,1.9,6.2.18,9.25.79,1.34.26,3-.9,4,.9-1.8.42-3.6,1-5.47.72-1.61-.28-1.47.79-1.54,1.76a1.06,1.06,0,0,1-.76.62,4,4,0,0,0-2.52.42c-1.19.78-1.9,2-1.08,3.13s1.61-.4,2.42-.71a4.85,4.85,0,0,1,1.05-.37,1.52,1.52,0,0,1,1.13,1c.6,1.82-.44,3.67.13,5.5.2.63.13,1.25-.62,1.5a1.72,1.72,0,0,1-1.94-.65c-.64-.69-.14-2.72-1.94-2-1.31.54-1.15,2.05-1.24,3.27a10.5,10.5,0,0,1-.32,2.56c-.24.52-.53,1-1.21.89a17.76,17.76,0,0,1-.16-3.63c.42-2.93-.13-5.46-2.43-7.48-.27-.93-.32-1.73,1.05-1.52,1.07.17,1.29-.53,1.15-1.27-.26-1.46-1-.1-1.5-.18-1.08-.17-.93-.84-.65-1.56C404.1,186.77,406.57,186.74,406.82,184.79Z" transform="translate(-58.18 -155.41)"/><path class="cls-36" d="M327.47,212.45l-.79,1.58c-2.18.73-3.81-1.15-5.83-1.44-.69,2.3,2.44,2.39,2.15,4.27a2.89,2.89,0,0,1,0,.72c-1.47,1.61-.57,2.57.94,3.32,1.07.53,2.42.25,3.4,1.09,0,.62,0,1.24,0,1.85-2.21-.7-5.1-.31-6.44-2.47a19.39,19.39,0,0,1-2.63-9.59c-.09-3.52,1.1-7.07.94-10.69-.09-2.13.86-3.37,3.14-3,1.17.17,2.27.47,2.22-1.31,1.42,1.43.29,2.11-.82,2.8-2.91,1.61-2.92,2.42-.31,4.45,1.47,1.15,3.49,1.17,4.79,2.56-.63,1-1.69.66-2.59.78-1.17.66-2.1-.14-3.09-.53-.56-.22-1.19-.56-1.59.16s0,1.17.36,1.68C322.85,210.78,325.51,211,327.47,212.45Z" transform="translate(-58.18 -155.41)"/><path class="cls-37" d="M508.27,211c-1.32-1.66-1-2.76,1.17-2.94,6.79-.56,13.59-1.06,20.39-1.59,2.77-.21,1.88,1.58,1.55,2.93a54.19,54.19,0,0,0-1.43,18c-.28.65-.65,1.1-1.42.63-1.79-3.15-.87-6.54-.79-9.84,0-1.6.45-3.19.59-4.81.37-4.32.1-4.74-4.37-4.29-3.46.34-6.93.6-10.39.94a13.76,13.76,0,0,0-4.27,1.17A1.23,1.23,0,0,1,508.27,211Z" transform="translate(-58.18 -155.41)"/><path class="cls-38" d="M610,256.58l.77,0c1.74,8.32,4.75,16,10.34,22.62,5.38,6.4,4.13,12-2.82,15.32l-.75-.6c-.15-.71.27-1.14.73-1.57,4.46-4.15,4.84-7.39,1-12.07a47,47,0,0,1-9.25-18C609.51,260.4,608.54,258.47,610,256.58Z" transform="translate(-58.18 -155.41)"/><path class="cls-39" d="M237.73,234.33l-1.74.5a130.43,130.43,0,0,0-31.59,9.77.6.6,0,0,0-.32.89c-.73,1-2.45.18-3,1.59-2.09-2.57.41-3.23,1.86-4a74.39,74.39,0,0,1,14.14-5.58c5.66-1.75,11.27-3.93,17.28-4.24C235.53,233.17,237.17,232.34,237.73,234.33Z" transform="translate(-58.18 -155.41)"/><path class="cls-40" d="M491.9,500.07c0,.53,0,1.06.07,1.59H463v-1.59Z" transform="translate(-58.18 -155.41)"/><path class="cls-41" d="M238.54,250.63c0-.25,0-.5,0-.75l52.31,0c0,1-.68,1.2-1.37,1.49-3.71.68-7.45.32-11.18.33-11.33.06-22.66,0-34,0C242.3,251.74,240.24,252.06,238.54,250.63Z" transform="translate(-58.18 -155.41)"/><path class="cls-42" d="M611.47,459.12c-1.41,3,0,6.2-.77,9.24-.8-10.38-1.36-20.76,0-31.14.39,1-.24,2.24.72,3.11a3.21,3.21,0,0,1,1.19,2.59,131.46,131.46,0,0,1,0,13.61A3.22,3.22,0,0,1,611.47,459.12Z" transform="translate(-58.18 -155.41)"/><path class="cls-43" d="M373.86,423.93c1.05.85.56,2.13.88,3.18q0,11.67,0,23.34c0,1.49.1,3-1,4.2-1.8.49-2.24,1.58-1.4,3.23a12.89,12.89,0,0,0,2.1,3.31c.21,2-1,1.09-1.82.88-1.67-1.46-2.32-3.48-3-5.47s0-3.79,2.23-3.59c2.46.21,2.27-1,2.25-2.59Q374,437.17,373.86,423.93Z" transform="translate(-58.18 -155.41)"/><path class="cls-44" d="M410.52,213.38c0-.26,0-.51,0-.77,2.64-.81,5.75-.71,7.31-3.66,1-2.9,3.08-1.88,5-1.38.08.07.26.21.24.24-1.6,3.05-.36,5.75,1,8.45a1.85,1.85,0,0,1-.95.36c-1.63-.24-2.52-1.49-3.54-2.56-.49-.51-.86-1.39-1.75-1s-.75,1.21-1,1.91c-.56,1.72,1.21,3.7-.6,5.28a1.92,1.92,0,0,1-1.09-.1c-1.85-1.83-.93-4.13-1.1-6.27C412.83,213.88,411.57,214.35,410.52,213.38Z" transform="translate(-58.18 -155.41)"/><path class="cls-45" d="M529.24,228.34l.71-.9a11.93,11.93,0,0,0,6,9.26,33.55,33.55,0,0,1,7.33,6.23l1.17.21a2.9,2.9,0,0,1,1,3,1.19,1.19,0,0,1-1.27.86,112.86,112.86,0,0,0-11.88-10.7C530,234.54,527.75,232,529.24,228.34Z" transform="translate(-58.18 -155.41)"/><path class="cls-46" d="M612.41,402.28h.7c1.34,1.46,1.06,3.23.85,4.94-.67,5.53-1.53,11-2.08,16.58-.15,1.49-.34,3-1.75,3.92h-.68C610,419.19,611.18,410.73,612.41,402.28Z" transform="translate(-58.18 -155.41)"/><path class="cls-47" d="M458.09,342.5c-4.71-5.61-8.6-11.78-12.77-17.75l.8-.57c3.74,5.23,7.46,10.48,11.24,15.69.56.77.66,2.37,2.33,1.7C460,343.4,459,342.81,458.09,342.5Z" transform="translate(-58.18 -155.41)"/><path class="cls-48" d="M323.11,513.59c1.24-2.43,0-5.11.74-7.59,1.15,6.71.39,13.5.73,20.25H322.9C321.29,522,321,517.78,323.11,513.59Z" transform="translate(-58.18 -155.41)"/><path class="cls-49" d="M290,250.67l.85-.75q11.34,2.06,13.37,13.4l-.73.86c-1.45-.23-1.48-1.51-1.79-2.5a13.16,13.16,0,0,0-9.22-9.21C291.44,252.16,290.15,252.13,290,250.67Z" transform="translate(-58.18 -155.41)"/><path class="cls-50" d="M423.15,208.6c-1.87-1.14-3.68-1.28-5.37.35-2.43-.3-4.88-.53-7.3-.9-2.24-.35-3.9-1.47-4.32-3.89l.64-.79c3.39,2.76,7.36,3,11.48,2.8a10.53,10.53,0,0,1,4.76.46C424.14,207.08,424.12,207.18,423.15,208.6Z" transform="translate(-58.18 -155.41)"/><path class="cls-51" d="M238.64,503.92l.76,1a133.63,133.63,0,0,1-1.57,18.53l-.69-2.31c-2-2.06-.68-4.44-.5-6.63C236.92,510.92,236.59,507.18,238.64,503.92Z" transform="translate(-58.18 -155.41)"/><path class="cls-52" d="M333.47,173.72c0,.24,0,.48,0,.72-2.69.73-2.94,1-5.32,5l-.73-.65c.05-2.56-2.57-1.93-3.7-3.09-.71-.78-1.73-.56-2.6-.81,1-2,2.87-1.4,4.48-1.52,1.32-.1,2.65,0,4-.2a5.89,5.89,0,0,1,1.17-.29C331.76,172.81,332.78,172.75,333.47,173.72Z" transform="translate(-58.18 -155.41)"/><path id="glasses" class="cls-35" d="M403.62,188.52c.22.21,0,1,.21,1.07s.19,0,.39-.15c.68-.53,1.09-1.53,2.09-2.1.75,1,.39,1.95.38,2.85,0,3.22,0,3.26-2.69,1.93l-.11-.05c-.1.33-.21.65-.32,1A3.36,3.36,0,0,1,403.62,188.52Z" transform="translate(-58.18 -155.41)"/><path class="cls-53" d="M202.58,249.63l1.57-.6h0c.82.92,1.87,1.74,1.23,3.22-3.76-1.16-7.87.22-11.55-1.58l-1.57-.78Z" transform="translate(-58.18 -155.41)"/><path class="cls-12" d="M113.06,502c-.17-.72-.27-1.48-1-1.87.88-3.66.66-7.42,1-11.14.24,0,.48,0,.72,0,1.76,3.26.71,6.77.91,10.16C114.52,500.29,114.42,501.49,113.06,502Z" transform="translate(-58.18 -155.41)"/><path class="cls-36" d="M508.27,211l.82,0a11.36,11.36,0,0,1,3.31,11.09l-.87.1Q509.91,216.58,508.27,211Z" transform="translate(-58.18 -155.41)"/><path class="cls-54" d="M490.44,266.26c.23,0,.45,0,.67,0,.41,4.32.4,8.61-1.21,12.74l-.79,0A27.58,27.58,0,0,1,490.44,266.26Z" transform="translate(-58.18 -155.41)"/><path class="cls-55" d="M289.47,516.58l.71-.87.58,0a1.89,1.89,0,0,1,.71.89c.57,2,.1,4.18.73,6.21a2.12,2.12,0,0,1-.72,2.11l-.75.81C289.57,522.76,290,519.61,289.47,516.58Z" transform="translate(-58.18 -155.41)"/><path class="cls-52" d="M319.24,176.59l1.61-.71c.7,1.3,2.07,2,2.94,3.11-.28.47-.56.94-.85,1.41C319.88,180.91,319.07,179.22,319.24,176.59Z" transform="translate(-58.18 -155.41)"/><path class="cls-56" d="M427.73,477c.49,7.26,1,14.53,1.46,21.8s1,14.54,1.57,21.81a23.68,23.68,0,0,0,.56,2.86c.27,2.06-.21,3-2.7,2.95-12.75-.18-25.5-.11-38.25-.13-.92-19.87-2-39.72-5.2-59.39-1.31-8-2.37-16-3.57-23.93-.19-1.29-.52-2.79,1.46-2.51,1.7.25,4.05-2.69,5.11,1,.77,2.63,1.7,6.2,5,5.31s1.57-4.45,1.36-6.89a47.89,47.89,0,0,0-1.31-6.18c-1.84-1.88-1.68-4.28-1.69-6.62a71.69,71.69,0,0,1,.1-7.76c.32-2.94,1.22-3.32,4.17-2,2.25,2,2.05,5,2.68,7.57,1.57,6.45,2.27,13,3.35,20.34-1.08-8.9-2.57-17-4.15-25.05a19.32,19.32,0,0,1,0-5.58c.14-1.44.71-2.7,2.33-3s2.38.67,3,1.77a24.12,24.12,0,0,1,3,8.77c.84,6.2,1.85,12.38,2.76,18.57-.88-6.56-2.09-13.06-2.83-19.64a13.34,13.34,0,0,1-.13-2.6c.12-1.38.22-2.94,1.78-3.4s2.62.75,3.31,1.91c2.71,4.55,3.89,9.63,4.85,14.77-.23,3.55,1.41,6.77,1.58,9.54.31,1.16.89.47.45.71-.14.07-.25,0-.28-.21-.56-4.25-2.74-8.33-1.28-12.79,2.88-1.61,4.93-.73,5.34,2.31.1.8-.48,1.65.13,2.43C425.32,447.89,426.22,462.48,427.73,477Z" transform="translate(-58.18 -155.41)"/><path class="cls-56" d="M113.06,502l.63-2.55a3.86,3.86,0,0,0,.86-4.16,15.71,15.71,0,0,1-.24-7.37c.16-12.84,1.61-25.62,2.17-38.44.18-3.88,3.52-1.55,4.85-3,1.66-1.84,4-.92,6-1.36,4.1-.91,8.31-1.21,12.45-1.88,1.78-.29,3.74-.55,5.26,1-.14,2.2-1.75,3.76-2.56,5.68-1.83,4.31-1.68,8.55-.37,13.14a1.69,1.69,0,0,0,.7-2c-1.68-5.93,0-11.25,3.76-15.65,2.95-3.47,3.33-7.27,3.51-11.37a34.31,34.31,0,0,1,.56-5.92,2.31,2.31,0,0,1,2.49-1.86c1.26.17.82,1.36,1,2.11a185.35,185.35,0,0,1,4,60.64c-1.3,12.36-1.89,24.79-2.8,37.19l-43.14.16c-.46-6.93.88-13.77.91-20.67C113.05,504.44,113.06,503.21,113.06,502Z" transform="translate(-58.18 -155.41)"/><path class="cls-57" d="M611.47,459.12q0-9.39,0-18.79c1.41-7.55,3.09-15.06,3.93-22.71.06-.58-.07-1.34.71-1.54s1.36.49,1.74,1.1a2.37,2.37,0,0,1,.38,1.4c-.83,6.69,1.77,12.22,5.41,17.61,2.25,3.33,1.37,7.4,1,11.49,2.75-3.62,2.39-7-1.5-15.93,3.53-1.05,5.21.41,5.12,4,2-.66-.51-3.62,2.71-3.68s3.13,2.45,3.94,4.3c1.54-.85-.43-3.31,2.09-3.41,2.83-.13,3.3,1.91,3.74,4.47,1.41-1.25-.12-4.37,3.3-3.52,3,.74,2.55,2.49,2.63,4.4,1.06,23.86,2,47.72,3.24,71.57.28,5.47.66,10.92.54,16.39-10.76,0-21.53-.11-32.29.11-3.07.06-3.91-1.09-3.67-3.77q-.74-15.6-1.45-31.2Q612.25,475.28,611.47,459.12Z" transform="translate(-58.18 -155.41)"/><path class="cls-58" d="M238.64,503.92l-1.5,17.22c-.31,5.19-.31,5.21-5.56,5.19l-34-.13c1.2-13.82,2.17-27.66,3.65-41.44,1.3-12.15,2.12-24.4,5.82-36.17,1.08-1.62,1.08-5,3.77-4.17,2.91.94.94,3.75.78,5.81-.21,2.68-1.89,5.11-1.35,8.33,2-3.14,2-6.44,2.85-9.48A79.75,79.75,0,0,1,217,437.14c.72-1.59,1.25-4.38,3.29-3.92s1.21,3.18,1,4.86c-.39,4.19-1.09,8.34-1.66,12.51-.48,1.5.28,3.08-.2,4.06-.2,1,.47.51,0,.58-.11,0-.11-.09-.07-.34a5,5,0,0,1,1-2.63c.88-5.87,1.76-11.75,3.92-17.32a17.31,17.31,0,0,1,1.6-3.33c.51-.77,1.14-1.89,2.32-1.44,1,.39,1.16,1.46,1.23,2.5A40.35,40.35,0,0,1,228,444.39c-.43,1.8-.57,3.67-.83,5.5a37.5,37.5,0,0,1-.79,7.05c.58-1.63.3-4.13,1.52-6.2a84.84,84.84,0,0,1,4-15c.61-1.56.9-4.41,3.09-3.94,1.77.39,1.09,3,1.1,4.67,0,5.74-1.47,11.27-2.55,16.85a36.93,36.93,0,0,0-.43,8.53,2.18,2.18,0,0,0,1.54,2.28,2.38,2.38,0,0,0,2.54-1.16,10.71,10.71,0,0,0,2.26-6.56c0-2.82,1.67-2.67,3.71-2.46,2.41.26,3.11,1.34,2.57,3.65a46,46,0,0,0-.64,5.14C242.42,476.38,239.75,490,238.64,503.92Z" transform="translate(-58.18 -155.41)"/><path class="cls-56" d="M495,526.32c-1.28-7.12-.83-14.35-1.33-21.51-1-13.88-2.9-27.61-5.09-41.33-.25-1.59-.21-3.23-.58-4.79-.48-2-.38-3.14,2.21-3.44s3.06.62,3.07,2.75a11.18,11.18,0,0,0,1.59,5.67c.61,1,1.44,1.81,2.72,1.44s1.24-1.43,1.32-2.43c.34-4.25-.4-8.41-1.12-12.57-.29-1.7-.49-3.43-.73-5.14-1.39-1.88-.78-4.05-.82-6.11,0-1.2-.06-2.66,1.41-3.13s2.21.73,2.94,1.73c1.77,3.82,1.71,8.08,2.91,12,.53,3.3.63,6.68,1.7,9.88-1-3.28-1.2-6.71-1.7-10.09-1-3.94-1.52-8-2.47-11.94a5.47,5.47,0,0,1-.13-2.57c.35-1.52.39-3.53,2.46-3.61,1.88-.08,2.55,1.55,3.05,3.17A52,52,0,0,1,509,445.39c1,4.49,1.11,9.14,2.27,13.6-1.23-4.67-1.21-9.57-2.41-14.25.45-2.63-2.07-5.15-.26-7.81.64-.71,0-2.28,1.33-2.37s1.45,1.25,1.84,2.07c3,6.33,4,13.22,5.47,20,.22,1-.17,2.32,1.66,3-.64-3.57-1.23-6.93-1.85-10.29-.24-1.35-.71-3,1-3.49,1.87-.53,2,1.34,2.47,2.57,3.3,9.33,4,19.15,4.9,28.86,1.56,16.29,2.52,32.65,3.74,49Z" transform="translate(-58.18 -155.41)"/><path class="cls-56" d="M291.48,524.89c0-.74,0-1.48.08-2.22-.67-1.1-.16-2.09.2-3.14a3.09,3.09,0,0,0-1.09-3.59l0,.1c-.88-1.71,1.08-3.79-.72-5.37-1.73-8-2.48-16.1-3.65-24.16-.29-2,.82-2.39,2.24-2.54,1.2-.13,2.86-1,3,1.39a4.34,4.34,0,0,0,.52,1.37c.73,1.63,1.64,3.54,3.68,2.92s1.64-2.68,1.38-4.42c-.86-5.87-2.21-11.7-1.82-17.69.08-1.25-.63-3.33,2-3,3.4,7.74,4.15,16.12,5.88,24.29,0-6.15-1.16-12.13-2.16-18.13a49.27,49.27,0,0,1-.68-7.38c0-1.09-.35-2.91,1.21-3.1,1.38-.17,1.86,1.52,2.26,2.61a71.68,71.68,0,0,1,3.38,13.63c.15,1,.05,2,.73,2.83a44.11,44.11,0,0,1,1.12,7.55c.47-2.19-1.29-4.86-.44-7.56-.17-5.36-2.27-10.64-.69-17,6.15,8.06,5.51,17.58,8.94,26.71.23-4.26-.83-7.33-1.44-10.44-.33-1.63-1-3.63.85-4.18,2.1-.63,2.38,1.76,2.81,3.15,3.34,10.79,3.88,21.93,3.88,33.12,0,1,.07,2,.1,3l-.21,12.66-29.09.08C292.75,526.33,291.46,526.66,291.48,524.89Z" transform="translate(-58.18 -155.41)"/><path class="cls-59" d="M336.47,273.11c18.68.19,37.37.37,56-.08a6.07,6.07,0,0,1,1.17-.77c7.42-.69,14.86-.13,22.28-.32a39.39,39.39,0,0,1,6.24.12c2.68.35,5,1.38,6.09,4.07,2.28,8.49,3.67,17.17,5.46,25.76.89,4.27.28,5.25-4,6.3-3,.74-5.3,1.76-5.47,5.38a3.88,3.88,0,0,0,.69,3.05c2.88,3.5,5,8.09,10.82,7.13a1.94,1.94,0,0,1,1.59.85c1.69,6.82.09,8.91-6.88,8.91q-16,0-31.91-.07a2.48,2.48,0,0,1-1-1.93c.4-6.68-.91-13.18-2.07-19.7-.05-3.46-1.38-5-5.22-4.65a103.27,103.27,0,0,1-13.4.06c-2.15-.07-2.73.68-2.7,2.75.12,6.82,0,13.65.11,20.47.06,2.42-.64,3.16-3.12,3.11-8.31-.17-16.63-.08-24.95-.09-2.92-1.17-3.73-3.73-4.3-6.46q-4.83-22.89-9.65-45.78C331.32,276.43,332.07,275.1,336.47,273.11Z" transform="translate(-58.18 -155.41)"/><path class="cls-60" d="M375.31,427c-.68-5.87-1.29-11.76-2.06-17.62-.35-2.61.05-3.88,3.17-4.32,7.91-1.12,15.75-2.78,23.62-4.22,7.69-1.36,15.4-2.64,23.07-4.15,2.34-.46,2.79.53,3,2.43,1.17,9,2.41,18,3.62,26.92.7,5.17.63,5.26-4.65,5.95-.86.12-1.74.11-2.6.16-1.12-.38-1.23-1.48-1.68-2.33-.56-1.05-1.39-2-2.62-1.69-3.69,1.06-4.07-1.58-4.76-4-.79-2.74-1.48-5.52-3.38-7.8-1.19-1.42-2.27-2.41-3.76-.28-1,1.38-1.85.86-2.44-.43-.82-1.77-1.3-4.27-3.66-4.11-2.64.19-2.1,2.92-2.59,4.74-.21.77-.67,1.33-1.61,1.15-3.15-1.5-4-1.1-4.21,2.17-.33,5.27.29,10.51.66,15.75.42,2.36-1.24,2.58-2.9,2.82-3.78.54-7.62.8-11.2,2.32-1.31-.14-1.34-1.11-1.47-2.13C376.4,434.53,375.84,430.75,375.31,427Z" transform="translate(-58.18 -155.41)"/><path class="cls-61" d="M456,316.29c-5.44,3.59-11.58,5.38-17.84,6.88-2.06,1.16-4.31,1-6.56,1-1.17,0-2.4-.12-2.44-1.63s1-2.08,2.45-2.11a25.37,25.37,0,0,0,4.56-.78,34.68,34.68,0,0,1-6.81,1c-1.12.06-2.73.18-2.87-1.61-.13-1.56.93-2.13,2.35-2.3a37.9,37.9,0,0,0,7.91-1.86,47.44,47.44,0,0,1-8.65,1.93c-1.83.23-4.22,1.05-4.44-1.58-.21-2.42,2.23-2.45,4.13-2.62a24.38,24.38,0,0,0,9-2.34,26.34,26.34,0,0,1-8.62,2.29c-1.53.17-3.29.13-3.64-1.73s1.5-2,2.74-2.32c2.63-.7,5.22-1.56,7.9-2.43-1.37-1.89-1.19-3.6,1.41-3.89,3-.33,5.87-.68,8.29-2.78,1.07-.92,2.43-.47,3.48.31a21.64,21.64,0,0,1,8.45,12A6,6,0,0,1,456,316.29Z" transform="translate(-58.18 -155.41)"/><path class="cls-62" d="M397.68,400l-2.69.66c-1.42-1.06-1.26-2.63-1.26-4.1q0-39.17,0-78.32c0-1.43-.26-3,1.51-4.25a13.26,13.26,0,0,1,2.42,7.11c.13,4.21,0,8.44-.12,12.66-.3,10.42-.46,20.86.08,31.28Z" transform="translate(-58.18 -155.41)"/><path class="cls-63" d="M456,316.29c.59-7.13-3.28-11.93-8.38-16.08-.84-.69-1.69-1-2.56,0-1.93,2.27-4.46,2.88-7.34,2.86-1,0-2.82-.9-2.89,1.16s2,.49,3.13,1.67c-3.66,1.07-7,2-10.4,3.08-1.07.33-3,.17-2.66,1.86.28,1.4,2.05,1.12,3.25,1.06a21.86,21.86,0,0,0,9.24-2.56c.53-.28,1-.76,1.84-.12-3.06,3-7.16,2.95-10.85,4-.59.16-1.24.14-1.84.25-1.08.21-2.52.29-2.45,1.71.07,1.63,1.61,1.25,2.64,1.18a53.51,53.51,0,0,0,12.89-2.8c-3.05,2.37-6.66,3.09-10.32,3.73-1,.18-2.58-.1-2.39,1.58s1.65,1.1,2.71,1.16c3.44.21,6.62-1.32,10-1.59-2.24,2-5,2.29-7.81,2.5-1.06.09-2.16.16-2.15,1.45s1.21,1.34,2.2,1.29c2.1-.12,4.2-.31,6.29-.46l-.78,1.43a2.58,2.58,0,0,0-.37-.06c-7.49.12-6.75-.58-12-6.14-3.2-3.38-1.07-5.79-1.06-8.5,0-2,2.87-2,4.55-2.45,5.3-1.58,5.26-1.48,4.14-6.85-1.66-8-3.23-15.94-4.84-23.91a1.23,1.23,0,0,1,1.08-.21c2.07,2.41,2.08,5.51,2.6,8.37.8,4.4,2,8.73,2.7,13.14.45,2.74,1.9,3.42,4.46,3a10,10,0,0,0,6.69-4.32c3.93-5.44,7.69-11,11.34-16.63.74-1.14,1.28-2.45,2.72-2.94a2.05,2.05,0,0,1,1.07.14c.86,1.39-.28,2.33-.82,3.35a62,62,0,0,1-5,7.79c-1.66,2.25-2,4,.48,6,2.23,1.79,3.74,4.29,5.28,6.68.78,1.22,1.7,2.5.89,4.11h-.72c-1.66.08-1.84-1.41-2.45-2.38a30,30,0,0,0-4.24-5.62c-1-1-2.14-3-4-1.37s-.72,3.09.66,4.42a26.06,26.06,0,0,1,3.36,3.45c2.37,3.32,4.69,6.7,3.79,11.14Z" transform="translate(-58.18 -155.41)"/><path class="cls-64" d="M397.63,365c-.79-11.52-.34-23.07-.67-34.6-.12-4.56.69-9.19-.89-13.66a3.77,3.77,0,0,0-1.3-1.9v2.68q0,39.69,0,79.39c0,1.23.13,2.47.2,3.71l-1.79.1c-1.19-1.34-1.12-3-1.12-4.6q-.06-41.62,0-83.25c0-1.6-.13-3.27,1-4.63,1.43.56.76,1.83.93,2.8s.38,1.77,1.52.75c2.73,4.79,2.88,10.05,2.83,15.36,0,2.09.13,4.18.2,6.28-1.41,1.16-.73,2.76-.76,4.16C397.65,346.74,398.24,355.89,397.63,365Z" transform="translate(-58.18 -155.41)"/><path class="cls-65" d="M396.31,417.17c1.49-.71.75-2.2,1.11-3.3.44-1.32.69-2.79,2.24-3.15,1.75-.4,2.74.91,3.58,2.14a33.8,33.8,0,0,1,1.76,3.25c3.09-2.81,4.22-2.66,6.35.92,1.54,2.58,2.27,5.47,3.19,8.3.31.92.39,2.6,1.94,2.26,3.91-.87,5,1.78,6,4.53l-.88,1.58c-.48-1.12-1-2.25-1.46-3.36-.8-1.82-2-2.51-3.74-1.15-1,.71.57,2.69-1.42,2.94-1.32-4.51-2.22-9.17-4.37-13.39-.7-1.36-1.07-3.73-2.94-3.27-1.49.36-1,2.59-1,4,.05,7.35,1.83,14.5,2.64,21.76.13,1.16.68,2.32-.43,4.4-.85-5.66-1.65-10.48-2.27-15.32a71.14,71.14,0,0,0-3.73-15.12c-.52-1.43-1.07-3.54-3.09-3.09-1.81.4-1.37,2.43-1.37,3.84.05,8.85,2.64,17.38,3.47,26.14.13,1.46.62,2.89-.2,5.36-1.93-10.55-2.38-20.49-6.29-29.64C395.47,417.28,395.61,416.86,396.31,417.17Z" transform="translate(-58.18 -155.41)"/><path class="cls-66" d="M457.66,314.78c-.81-5.64-3.13-10.63-7.71-14-3.15-2.3-2.55-4.05-.5-6.33l1-1.14c4.54,3,7.3,7.37,10,11.82a17.94,17.94,0,0,0,.76,2.86c1,2.37.63,4.26-1.54,5.73Z" transform="translate(-58.18 -155.41)"/><path class="cls-67" d="M416.34,373.92c.79,6.41,1.6,12.82,2.36,19.23.18,1.49.38,3-1.59,3.66-2.65.93-3.49.3-3.22-2.49.64-6.8,1.22-13.62,1.82-20.43C415.94,373.54,416.14,373.55,416.34,373.92Z" transform="translate(-58.18 -155.41)"/><path class="cls-68" d="M416.34,373.92a3.33,3.33,0,0,1-.63,0,308.56,308.56,0,0,1-3.5-32.39C413.93,352.27,415.76,363,416.34,373.92Z" transform="translate(-58.18 -155.41)"/><path class="cls-69" d="M423.15,208.6c-.49-1.32-.49-1.37-1.33-1.38-3,0-5.95,0-8.92,0s-5.07-.92-6.1-3.81c0-1.11.09-2.22.12-3.33.13-3.69.13-3.69,4-4.45.9,1.28-1.5,4.24,2.84,4.27-3.08-2.22-.68-4.46-.92-6.6.26-.92.19-2.08,1.57-2.18s1.77.72,2.17,1.69c1.25,3,3.41,3.71,6.31,2.41.24-.22.5-.43.75-.65,2-1.16.65-3.69,2-5.12,2,.23,3.95.24,5.69-1,1.28-.88,2.46-2.41,4.22-1.45,2.07,1.12,1.92,3.23,1.81,5.22-3.33,3.12-2.75,7.22-2.4,11,.5,5.56-1.25,9.81-5.9,12.88-1.67,2.43-3.34,1.82-5,0-.47-.54-.92-1.09-1.4-1.62C419.53,211.15,419.52,211.15,423.15,208.6Z" transform="translate(-58.18 -155.41)"/><path class="cls-70" d="M423.18,188.53l.85.72c2.21,2.07,1.18,4.07-.13,6.06l.07-.07c-4,2-7.33.79-7.86-3-.38-2.61.82-4,3.47-3.5C420.88,189,422,188.27,423.18,188.53Z" transform="translate(-58.18 -155.41)"/><path class="cls-71" d="M423.18,188.53c-.89.95-1.69,2.09-3.29,1.55-.88-.3-1.61-2.21-2.71-.08a3.66,3.66,0,0,0,.18,4.13c1.82,2.66,4.26,1.6,6.61,1.11-2.77,2.9-6.54,2.11-8.17-1.7-.35-.81,0-2.13-1.47-2.1-1.17,0-.91,1.3-1.52,1.82l-.6-1a2,2,0,0,1,0-3,2.13,2.13,0,0,1,.44,0c2.34.27,3.7-2.46,6.11-2C420,188.38,422,187,423.18,188.53Z" transform="translate(-58.18 -155.41)"/><path class="cls-72" d="M418.74,187.3c-2.1.49-3,4.56-6.11,2,.46-1.06-.66-1.71-.74-2.82h8.18Z" transform="translate(-58.18 -155.41)"/><path class="cls-71" d="M423.9,195.31c.73-2,1.29-4,.13-6.06l1.6.16C425.44,191.49,426.94,194.07,423.9,195.31Z" transform="translate(-58.18 -155.41)"/><path class="cls-56" d="M193.83,250.67c2.57,0,5.14.15,7.7,0a4.58,4.58,0,0,1,3.85,1.57h0c5.28,5.91,10,12.05,8.29,20.75a5.51,5.51,0,0,0-.31,2.2c1.2,4.86-1.38,8.26-4.23,11.65a52.52,52.52,0,0,0-4.93,7.45c-4.91,8.35-3.54,16.34,1.86,23.69,6,8.17,13.82,14.57,21.79,20.74,4.32,3.34,8.71,6.61,13,9.93,3.39,2.58,6.84,3.9,11,3.23a16.27,16.27,0,0,0,3.54-1.08c3.91-1.59,6.79-3.83,8.24-8.25,3.37-10.23,6.47-20.51,9-31a62.35,62.35,0,0,0,2.17-14.72c.34-11.6-4.72-18.72-16-22.87-3.26-1.21-6.59-2.24-9.94-3.23a13.65,13.65,0,0,1-9.58-12c0-2.74-1.55-5.31-.83-8.11l51.41,0c7.43,1.57,11.92,6.09,13.49,13.51q0,46.62,0,93.24a16.36,16.36,0,0,0,.29,2.2l25.37,22c-.62,1.06-1.72.51-2.57.51q-65.36,0-130.7,0c-9.6,0-15.58-6-15.59-15.53,0-32.35.19-64.7-.12-97C180,259.39,183.26,253,193.83,250.67Z" transform="translate(-58.18 -155.41)"/><path class="cls-73" d="M120.39,445.76c-2.82.34-5.67.52-8.44,1.08s-4-.12-4.13-3.15a93.54,93.54,0,0,0-2.24-16.05c-.4-4.2-.67-8.42-1.26-12.59-.27-1.95-.22-2.78,2.15-3.06,15.41-1.83,30.79-3.85,46.18-5.84,2.1-.27,3.3-.16,3.59,2.62,1,9.37,2.36,18.7,3.58,28.05.11.86.12,1.73.18,2.6.08,1.17-.64,1.45-1.62,1.55s-1.27-.4-1.39-1.26c-.48-3.68-1-7.37-1.54-11-.25-1.49-.07-3.62-2.29-3.67s-3.29,1.37-3.84,3.42c-.82,3.06-.25,6.2-.61,9.28-.26,2.33-.34,4.88-3.66,5C136.88,444.16,128.74,445.78,120.39,445.76Z" transform="translate(-58.18 -155.41)"/><path class="cls-74" d="M120.39,445.76l24.66-3.05-.05,1.54c-6-.54-11.8,1.39-17.73,1.82l-5.94.41Z" transform="translate(-58.18 -155.41)"/><path class="cls-75" d="M496.31,447.26c.33,5.67.33,5.67-5.29,6.67-6.45,1.15-6.5,1.16-7.63-5.12-.54-3-.86-6.1-1.28-9.15-.42-3.7-.81-7.41-1.28-11.1-.23-1.73,0-2.64,2.12-3q19.47-3.24,38.89-6.82c2.17-.4,2.87-.22,3.14,2.27.89,8.14,2.16,16.25,3.29,24.36.15,1,.35,2.42-1,2.23-1.93-.26-4.1,2.53-5.68-.24-1.18-2.06-2-4.14-5-2.53-.94.49-.85-.93-1-1.41a43.88,43.88,0,0,0-2.5-7c-2.11-3.91-2.84-4.11-6.08-1.45-1.49-1.16-1.67-4.34-3.83-3.88-2.42.52-1.54,3.44-2,5.34a.65.65,0,0,1-.55.4c-1.15-.24-1.63-2.19-3.14-1.37-1.32.73-1.06,2.15-1,3.34C496.66,441.64,496,444.44,496.31,447.26Z" transform="translate(-58.18 -155.41)"/><path class="cls-76" d="M500.76,436.43c0-.25.05-.49.07-.74.15-2-.49-4.9,2.17-5.27s3.27,2.47,4,4.56l1.61,1.95.69,7.64c.27.72,0,1.08-.75,1a63.09,63.09,0,0,0-3.18-11.78c-.4-1-.71-2.44-2.07-2.25s-1.25,1.72-1.29,2.74c-.16,5.1,1.25,10,1.82,15.06-.25.35-.52.36-.8,0q-1.5-5.55-3-11.11C499.71,437.45,500.32,437,500.76,436.43Z" transform="translate(-58.18 -155.41)"/><path class="cls-60" d="M231.37,433.22c-.71-2-1-4.18-3-4.32-2.86-.18-3.45,2.83-5.24,4.6-2.31-3-4.3-2.06-5.91.73a24.42,24.42,0,0,0-2.44,5c-.77,2.52-1.37,4.77-4.87,4-1.11-.23-2.14.76-2.58,1.85-.73,1.78-1.87,1.85-3.59,1.53-4.72-.86-4.76-.77-4-5.6,1.37-9,2.85-17.93,4.14-26.92.28-2,.67-2.69,3-2.31,15.09,2.47,30.21,4.78,45.32,7.08,2.59.4,3.62,1,3,4.21C253.41,432,252.24,441,251,450c-.42,3.08-1.32,4.44-4.72,3.27a25.89,25.89,0,0,0-7-1c-2.8-.14-4.09-.93-3.25-4.11a52.22,52.22,0,0,0,1.43-12.95c0-1.62.29-3.76-1.73-4.57S232.65,431.66,231.37,433.22Z" transform="translate(-58.18 -155.41)"/><path class="cls-77" d="M234,458.26c.15-.86.49-2.29.62-3.75s1.05-1.58,2.29-1.45c1.39.15,2,.69,1.73,2.13a35.85,35.85,0,0,1-.89,4.29c-.48,1.43-.79,3.74-2.68,3.35C233.45,462.49,234.2,460.29,234,458.26Z" transform="translate(-58.18 -155.41)"/><path class="cls-78" d="M227.91,450.74c-.33,2.77-.38,5.59-1.79,8.17a20.5,20.5,0,0,1,1.06-9C227.42,450.18,227.66,450.46,227.91,450.74Z" transform="translate(-58.18 -155.41)"/><path class="cls-79" d="M220.45,452.26c-.55,2,0,4.28-1.94,6.68a21.66,21.66,0,0,1,1.18-8.35C219.94,451.15,220.19,451.7,220.45,452.26Z" transform="translate(-58.18 -155.41)"/><path class="cls-73" d="M461.22,305.14c-1.33-4.6-4.39-8.07-7.89-11-2.15-1.8-1.77-2.91-.43-4.8a90.66,90.66,0,0,0,7.53-11.89c-.05-4.7,3.15-6.59,11.62-5-2.6-1-4.68-.39-6.7-.61-1-2.09,1-1.61,1.85-2.26a5.3,5.3,0,0,0-3.09,1.82c-3.07.66-3.08-1.9-3.57-3.62-2.05-7.17-3.73-14.44-5.5-21.68-.27-1.09-.62-2.13-.73-2.42a120.92,120.92,0,0,1,3.89,17.48c.59,4.2,1.53,8.33,2.08,12.53.17,1.31.69,2.72-.73,3.73q-6.56,9.69-13.1,19.37a11,11,0,0,1-10,5.32c-1.76-.05-2.57-.35-2.93-2.32-1.3-7.19-2.88-14.34-4.34-21.5-.13-.62-.2-1.23-.84-1.55,1.74-11.93-2.41-23.44-2.49-35.26a136,136,0,0,1,1-17c.23-2,1.08-3.9,3.78-3.51.49,1.9.93,4.59,2.72,4.81,1.6.19,2.4-2.53,3.32-4.1a14,14,0,0,0,2.12-4.72c.53-3.67,2.6-3.42,5.19-2.56,24.64,8.17,39.8,25,45.92,50.13.15.6.38,1.17.57,1.76-.14,4.27.17,8.59-1.33,12.71-5.17,13.32-15,22.78-25.75,31.61Z" transform="translate(-58.18 -155.41)"/><path class="cls-56" d="M529.24,228.34c0,3.95,2.13,6.67,5.28,8.76,3.92,2.62,7.64,5.45,10,9.7,3.06,2.87,3,6.65,2.76,10.34a50.14,50.14,0,0,1-1.27,6.2c-1.1,5.48-3.51,9.39-9.26,11.41-4.86,1.72-5.18,4.53-2.18,9.1,2.74,4.17.27,10.7-4.61,12.22-3.41.83-6.72,1.14-9.48-1.67-5.56-8.62-11.58-16.94-16.31-26.09-5.76-11.1-5.06-19.1,3.58-27.26,5.07-4.79,6.94-10,5.3-16.66a12.56,12.56,0,0,1-.13-2.22c.64-3.06-.58-6-.67-9,0-1.35-.36-2.69.61-3.86a149.76,149.76,0,0,1,15.55-1.45c2.67-.14,1.59,1.66,1.4,2.74a67.93,67.93,0,0,0-1.22,13.72A8.63,8.63,0,0,0,529.24,228.34Z" transform="translate(-58.18 -155.41)"/><path class="cls-56" d="M545.06,246l-.6-2.9c.94-7.12,1.94-14.25,2.79-21.38.21-1.7.36-2.78,2.57-2.51,7.39.91,14.81,1.51,22.14,2.89a2.33,2.33,0,0,0,2.66.68c.72-.22,1.67-.57,2.13-.21,2.61,2,5.48,1,8.27.95,7.65.81,15.29,1.68,22.94,2.38,1.67.16,2.16.74,2,2.29-.51,4.06-1,8.12-1.41,12.19-.14,1.32-.89,1.79-2,1.62-3.25-.5-3.19,1.43-3.15,3.78.21,11.32-2.27,21.89-9.21,31.09-1.86,2.48-3.93,4.81-4.72,7.9-.34,1.32-.66,2.67.3,3.91,0,2.1,2,3,2.86,4.69-.52.72-1.34.13-1.94.42-5.16.46-10.25.38-15-2.06l-5.93-.73,2.18-2.53c1.11-2.33,3.57-3.59,4.7-5.92a10.23,10.23,0,0,1,.56-.89,4.35,4.35,0,0,0,1.09-2.33c-.13-3.91,2.28-3.8,5-3.22a19.82,19.82,0,0,0,4.06.34c1.78,0,2.44-.92,2.36-2.57.65-3.28.22-6.77,1.8-9.88.87-.93,2.29-1.63,1.27-3.33a1.55,1.55,0,0,1,0-1.76c4-4.52,1.83-9.36.79-14.15.22-3.05-1.46-4.21-4.25-4.38-8.18-.52-16.24-2.27-24.45-2.51-4.2-.87-4.22-.88-5,3.25-.51,2.75-.28,5.59-1,8.31a27.9,27.9,0,0,1-.39,4.08c-1,5-1,5-6,5.48-1.89.17-2.64.94-2.68,2.76a11.45,11.45,0,0,1-2.38,7.28c-.71.87-1.67,1.72-2.87,1s-.55-1.74-.21-2.66C546.9,260.35,548.12,253.27,545.06,246Z" transform="translate(-58.18 -155.41)"/><path class="cls-56" d="M571.31,288c-2.62,2-5.22,4.09-7.88,6.06a13.44,13.44,0,0,1-15.4.62,31.38,31.38,0,0,1-15.28-12.9c-1.58-2.53-.77-4.41,1.76-6.3,2.73-2,6-3.14,9-4.32,4.29-1.66,5.47-4.66,5.64-8.61s.12-4.11,4.25-4.09a35.61,35.61,0,0,0,5.16-.48c2-.27,3.37.43,3.22,2.88-.36,5.87,2.6,9.3,8.12,10.83a23.73,23.73,0,0,1,4.47,1.83c4.71,2.42,5.37,4.57,2.78,9.24l.06-.07C575.52,284.73,574,287,571.31,288Z" transform="translate(-58.18 -155.41)"/><path class="cls-56" d="M610,256.58c.56,7.33,3.41,13.8,7.51,19.78.7,1,1.5,2,2.26,2.94,4.94,6.31,4.34,10.22-2.23,14.59-6.71,2.56-13.42,3.16-20.25.36-2.85-1.17-5.29-2.7-6.68-5.56a10.45,10.45,0,0,1,2.6-8.65c8.55-9.82,11.35-21.5,11.46-34.13,0-1.26-.53-2.83,1.81-2.8,1.77,0,2.63.22,2.62,2.4C609.06,249.2,608.79,253,610,256.58Z" transform="translate(-58.18 -155.41)"/><path class="cls-22" d="M577.16,282.74c1.5-5.67.74-7.09-5.1-9.29-1.27-.48-2.6-.82-3.88-1.29-5.67-2.05-7.78-4.93-7.28-11,.2-2.38-.71-2.41-2.38-2.29-.87.07-1.75.05-2.62.06-5.42.06-5.41.06-6.19,5.38-.61,4.1-3,6.65-6.87,8a35.15,35.15,0,0,0-6.86,2.86c-4.28,2.59-4.62,4.85-1.16,8.59,3.9,4.23,8.79,7.27,13.21,10.88l-1.08.13c-3,.35-4.55-2.12-6.6-3.53-3.41-2.35-3.35-2.47-5.27,1.33-.84,1.66-1.54,3.4-3.38,4.26l-1.76-.78c3-2.13,3.8-5.62,5.32-8.66.76-1.52-.77-2.16-1.51-3-3.54-4.19-3.4-7.93,1.5-9.91,5.72-2.32,8.73-5.67,10-11.76,1.11-5.52,1.56-10.68-.72-15.9l.56-.76c3.43,5.4,2.64,11.13,1.26,16.87-.54,2.26-1.37,4.44-2.39,7.68,4.39-2.77,4.93-6.18,4.75-9.86-.09-1.65-.16-2.71,2.14-2.8,6.25-.24,6.24-.37,6.86-6.61.07-.73.16-1.47.25-2.21.93-.06,1.18.7,1.57,1.28.4.3-.22.1.23.28,7.51,3.14,15,6.46,22.52,9.48,2,.82,4.13-.92,6.21,0a1.74,1.74,0,0,1,.3,1,20.45,20.45,0,0,1-15.42,4.6,49,49,0,0,1-7.22-1.74c-.82-.22-1.78-.49-2.32.48s0,1.68.45,2.42a4,4,0,0,0,1.83,1.8c6.16,2,11.49,6.34,18.42,6.42a5.19,5.19,0,0,0,4.91-2.3c1.23-.06.62,1.18,1.14,1.61.25,2.58-.73,3.75-3.44,3.12-.83-.2-1.74-.06-2.59-.21-2.65-.45-5.8-2.06-5.5,3A2.06,2.06,0,0,1,577.16,282.74Z" transform="translate(-58.18 -155.41)"/><path class="cls-67" d="M590.68,294.55c3,.41,6.11.29,9.21,2.23H562.64c2.81-4.57,6.91-5,11.44-4.28C579.63,293,585.25,293,590.68,294.55Z" transform="translate(-58.18 -155.41)"/><path class="cls-80" d="M531.7,296.85c1.33-2.49,2.78-4.93,3.94-7.5.82-1.81,1.51-1.75,2.93-.59,2.66,2.18,5.21,4.54,8.38,6l1.83,2.06Z" transform="translate(-58.18 -155.41)"/><path class="cls-81" d="M590.68,294.55c-5.55-.57-11.16-.67-16.6-2.05l1.58-.73c5,.71,10.08.83,15,2.06A4.33,4.33,0,0,1,590.68,294.55Z" transform="translate(-58.18 -155.41)"/><path class="cls-22" d="M571.31,288c2-1.77,3.48-4.06,5.91-5.31-.75,2.87-3.24,4.16-5.31,5.84Z" transform="translate(-58.18 -155.41)"/><path class="cls-82" d="M378.3,441c1.51,0,2,.66,2.23,2.2,1.59,11.15,3.28,22.28,5,33.41.43,2.8.4,4.88-3.48,4.24a46.54,46.54,0,0,0-6.69-.18V438C376.09,440.11,376.11,442,378.3,441Z" transform="translate(-58.18 -155.41)"/><path class="cls-83" d="M374.49,461.19c-3.17-.74-3.71-3.43-3.66-5.88s1.77-1.23,3-.66C375,456.73,374.12,459,374.49,461.19Z" transform="translate(-58.18 -155.41)"/><path class="cls-73" d="M410.52,213.38c3.28-.83,5.25-.2,4.46,3.82a3.32,3.32,0,0,0,.6,2.77c1,.45.78,1.76,1.64,2.31,1.9-.41,2.63-3.58,5.27-2.21,2.55,2.11,2.34,4.67,1.36,7.47a178,178,0,0,0-7.4,27c-1,5.7-.57,11.36-.29,17.06-.61,1.38-1.86,1-2.92,1-6.59,0-13.18.12-19.76-.07-2.22-2.58-1.38-5.71-1.13-8.5.59-6.59.77-13.25,2.53-19.69,1.17-2.67.48-6,3.15-8.17.67-.54-.4-.84-.59-.92-.89-.4-.32.42-.38.63a59.83,59.83,0,0,0-1.76,6.85c-1.73,6.42-4.41,12.49-6.84,18.65a4.08,4.08,0,0,1-2,2.55c-6.54,6.62-14.27,9.77-23.69,8.34a21.8,21.8,0,0,0-6.3,0c-4.09.6-7.2-.64-9.41-4.13a126.08,126.08,0,0,1-12.47-28.51c-.67-2.19-.17-3.07,1.9-3.72a25.6,25.6,0,0,0,11.28-7c1.39-1.47,2-1,2.89.47,4.8,7.9,10.91,15.05,13.89,24.09.71-2.09-.92-3.74-1.05-5.9,2.83,1,4.69,3.15,7,4.72-1.15-3.45-4.7-4.46-7.25-7.05C378.26,233.4,390.61,217.88,410.52,213.38Z" transform="translate(-58.18 -155.41)"/><path class="cls-84" d="M332,228.79q-1.2-11.13-2.39-22.27c-.45-1.4.1-2.12,1.29-1.14a4.17,4.17,0,0,1,1.47,4c-.24,1.64-.79,3.3-.55,4.5a13.26,13.26,0,0,0-1.27-10.47c-.69-1.76-1.36-3.52-2.07-5.27a2.74,2.74,0,0,1,.78-3.5c.25,0,.66-.16.72-.06,3.73,5.89,11.75,8.94,11.51,17.53a32.73,32.73,0,0,0,1,6.59c1.08,5.9.31,7.29-5.41,9.17C335.46,228.37,333.83,229.11,332,228.79Z" transform="translate(-58.18 -155.41)"/><path class="cls-85" d="M332.08,230.51c4.76-1.5,10.05-2.06,12.76-7.24.38-.71,1.37-1,1.72-.14.52,1.33,2.9,2.29,1.27,4.11a28.57,28.57,0,0,1-13.12,8.06c-1.27.4-1.58-.35-1.82-1.18-.34-1.19-.54-2.41-.81-3.62Z" transform="translate(-58.18 -155.41)"/><path class="cls-56" d="M623.68,399.24q15.86,2,31.71,3.87c1.2.15,1.82.56,1.64,1.88q-1.77,13.23-3.51,26.46c-2.36,1.12-4.85.85-7.28.55a9.63,9.63,0,0,0-4,.27,29.87,29.87,0,0,1-7.46-1c-3.08-.06-5.66-2-8.88-2.07-2.11,0-3.6-2.24-3.87-4.48-.39-3.23-2-6-2.78-9.12-.36-1.53-1.77-2-2.83-2.8-2.06-1.53-3.42-3.26-2.44-6a3.79,3.79,0,0,0-.1-2.55,3.38,3.38,0,0,1,3-4.58C619.08,399.56,621.36,398.54,623.68,399.24Z" transform="translate(-58.18 -155.41)"/><path class="cls-61" d="M623.68,399.24c-2.35,2.1-5.87,0-8.2,2.33-.93.93-2,1.58-.65,2.95.23.23.49.78.37,1-2.46,4.5,1.68,5.58,3.65,8.18a21.29,21.29,0,0,1,3.91,10.09c.41,3.27,1.79,5.26,5.53,4.69,2.69-.42,4,2.63,6.45,2.84-4.06-.47-8.11-1-12.18-1.39-2.16-.22-2.54-1.76-2.68-3.4-.2-2.22-.12-4.47-.32-6.69-.13-1.46-.22-3-1.3-4.19-1.7-1.85-3.4-1.56-3.9.89-.67,3.26-1,6.61-1.38,9.93-.25,2.2-1.14,2.55-2.85,1.26,1.1-8.47,2.66-16.89,3-25.44.13-4.08,2.19-5.09,5.87-3.83C620.48,399,622.2,398.42,623.68,399.24Z" transform="translate(-58.18 -155.41)"/><path class="cls-61" d="M642.2,432.27c.44-1,1.29-1.91,2.26-1.5,3,1.26,6.11-.31,9.06.68.6,3.88-2.39,1.82-3.84,2.31Z" transform="translate(-58.18 -155.41)"/><path class="cls-56" d="M297.82,464.05c-2.22-1.78-3-.34-3.5,1.59-1.17,4.24,0,8.4.7,12.5.5,2.82.25,4.23-3,4.18a13.84,13.84,0,0,0-5.49.79c-4.11,1.74-4.37-.46-4.69-3.66-.69-6.9-1.6-13.79-2.72-20.63-.51-3.08.23-4.51,3.41-4.86a76.62,76.62,0,0,0,7.59-1.52c9.75-1,19.33-3.09,28.93-5,3.11-.61,4.12.07,4.46,3.1.84,7.65,2,15.26,2.9,22.9.13,1,1.07,2.7-1.08,2.84-1.86.12-4.08,2.12-5.5-.63-1-1.89-2.14-3.1-4.37-2.36-1.87.63-1.31-1-1.57-1.66-1-2.79-1.77-5.7-3.46-8.19-1.54-2.26-3-2.46-4.29.35-1.37-.71-1.22-2.39-2.21-3.33-.82-.77-1.47-1.79-2.78-1.51s-1.36,1.6-1.94,2.51S300.28,464.34,297.82,464.05Z" transform="translate(-58.18 -155.41)"/><path class="cls-86" d="M308.66,479.26c.16,2.9,1.47,5.7.62,9.63a28.1,28.1,0,0,1-1.3-9.62Z" transform="translate(-58.18 -155.41)"/><path class="cls-87" d="M396.31,417.17l-.87.67c-2.07-1.93-2.68-.71-2.94,1.35-.61,4.87.11,9.67.69,14.48l-.73,1.63a43.79,43.79,0,0,1-1.3-16.46C391.51,415.31,393.61,414.77,396.31,417.17Z" transform="translate(-58.18 -155.41)"/><path class="cls-88" d="M393.49,442.45c-.65,1,.79,3.31-1.28,3.07s-2.52-2.73-2.9-4.63,1.24-1.86,2.35-1.89C394.54,438.93,392.78,441.3,393.49,442.45Z" transform="translate(-58.18 -155.41)"/><path class="cls-89" d="M415.69,270.75c-2.32-6.78-.86-13.53.41-20.19a167,167,0,0,1,6.67-23.2c1-3,.81-5.15-1.11-7.39a1.74,1.74,0,0,1-.56-1.39,2.9,2.9,0,0,1,1.85-2.34l1.1-.12a5.8,5.8,0,0,0,5,0l1,.11c.72,1.06,1.38,2.14.71,3.49-.07.41-.14.81-.2,1.21-2.33.79-3,2.54-3.11,4.85-.8,13.92-.42,27.79,2.62,41.43.83,3.71-.5,6.47-1.76,9.51l-.29-.06-.29,0c-1.39-3-3.93-3.68-7-3.52-1.45.08-2.92-.08-4.38-.13C415.67,272.45,416.46,271.34,415.69,270.75Z" transform="translate(-58.18 -155.41)"/><path class="cls-90" d="M430.8,219.73c0-1.2-1.28-2.16-.71-3.49,1.8-.46,2.79-1.92,4-3.18.66-.72.7-2.55,2.17-1.82a3.09,3.09,0,0,1,1.88,3.66,25,25,0,0,1-4.66,9.34Z" transform="translate(-58.18 -155.41)"/><path class="cls-91" d="M497.88,459.1c0,1.34,0,1.72,0,2.09-.12,1,.3,2.56-1.12,2.69-1.08.1-1.27-1.42-1.54-2.29a47.67,47.67,0,0,1-1-5.06c-.2-1.12,0-1.75,1.39-2s1.71.49,1.87,1.52C497.68,457.36,497.83,458.71,497.88,459.1Z" transform="translate(-58.18 -155.41)"/><path class="cls-92" d="M500.76,436.43,500,438.3c-.89-.62-.67-2.24-2.34-2.36-1.39,2.9-.34,6-.66,9l-.73,2.29c-1.13-3-.73-6.14-.68-9.22,0-1.47.21-3.19,1.93-3.7S499.81,435.53,500.76,436.43Z" transform="translate(-58.18 -155.41)"/><path class="cls-93" d="M296.24,486.11c-.37,1,.45,2.59-1.18,2.33-1.93-.32-1.95-2.35-2.42-3.82s.74-1.56,1.73-1.59C297.06,483,295.47,485.24,296.24,486.11Z" transform="translate(-58.18 -155.41)"/><path class="cls-61" d="M290,510.67c3.12,1.4.37,3.59.72,5.37a1.39,1.39,0,0,1-.53-.33C290.12,514,290.06,512.35,290,510.67Z" transform="translate(-58.18 -155.41)"/><path class="cls-94" d="M206.37,252.09c-.16-1.43.93-1.59,1.88-1.76a109,109,0,0,0,27.8-9.31c.89,6.15.51,12.15,2.57,17.76,1.6,3,3.83,5.85,4.41,9.26.87,5.11-1,9.53-4.49,13.24a27.76,27.76,0,0,1-6.82,5.1c-1.85,1-3.69,1.55-5.51,0-1.26-1.11-2.24-.56-3.15.52-2.72,2.17-4.68.62-6.58-1.33A9.87,9.87,0,0,1,214,282c-.85-3.26,1.15-6.24.8-9.57-.64-6.16-3.42-11.33-6.47-16.47C207.63,254.68,206.34,253.72,206.37,252.09Z" transform="translate(-58.18 -155.41)"/><path class="cls-95" d="M222.61,286.31c.92-2.51,2.33-2.73,4.11-.83.81.87,1.53,1.51,2.86.91,6.34-2.82,13.57-9,12.68-17.91-.36-3.59-3.12-6.21-3.64-9.7l.75,0c.93,1.72,2,3.4,2.78,5.19a10.66,10.66,0,0,0,7.47,6.07c3.57,1,7.13,2.06,10.58,3.37,10.9,4.15,16.05,11.85,15.63,23.47a59.39,59.39,0,0,1-2.29,15,.73.73,0,0,1-1-.28c-1.16-4.05.77-7.83,1.21-11.72,1.29-11.31-3.2-19.89-13.66-24.22-4.25-1.76-8.74-2.91-13.06-4.51-1.53-.56-2.34-.25-2.69,1.37-1.51,6.93-5.75,11.73-11.84,15.05-1.82,1-2.19,2.32-1,4,2.43,3.44,2.36,7.26,1.74,11.13-.67,4.19-.25,8.45-1.15,12.63-.41,1.91-1.05,3.32-3.21,3.44a86.8,86.8,0,0,1-10.82,0c-1.4-.1-2.77-.49-2.84-2.33a2.32,2.32,0,0,1,1-.71c2.84-.76,5.64-.05,8.47.24,3.57.38,4.54-.43,4.59-4a60.75,60.75,0,0,1,.73-10c.93-5.19-1.53-9.36-4-13.51-.56-1-1.16-1.87-2.5-1.69A1,1,0,0,1,222.61,286.31Z" transform="translate(-58.18 -155.41)"/><path class="cls-53" d="M206.37,252.09c6.38,8.93,11.51,18.2,8.35,29.8a5.43,5.43,0,0,1-1.39,1.59,57.71,57.71,0,0,0-7.91,10.8c-5.13,9.13-3.87,17.36,4.53,26.84,6.43,7.27,14.09,13.28,21.76,19.2,3.34,2.58,6.64,5.21,10.09,7.65,2.8,2,5.68,3.53,9.19,3.59.54.22,1,.52,1,1.18a12,12,0,0,1-10.38-2.39c-10.95-8.17-21.94-16.28-31.54-26.06-5.22-5.32-9.43-11.21-9.8-19.06a21.79,21.79,0,0,1,7-17.1c6-5.6,5-12.69,6.18-19.33.4-2.24-1.22-4.74-2.43-6.91-1.82-3.23-3.72-6.43-5.58-9.64Z" transform="translate(-58.18 -155.41)"/><path class="cls-94" d="M204.15,249c-1-1.47-.52-2.13,1.16-2.48a153.16,153.16,0,0,0,29-9.25c.57-.25,1.48-1,1.88,0,.56,1.43-.38,2.23-1.64,2.85a91.26,91.26,0,0,1-16.94,6.65c-4.42,1.17-8.8,2.61-13.48,2.22Z" transform="translate(-58.18 -155.41)"/><path class="cls-96" d="M204.08,245.49l-2.29-.45c9.48-4.94,19.12-7.87,29-10.11,1.67-.38,3.47-1.5,5.22-.1C225.94,240.14,215.13,243.17,204.08,245.49Z" transform="translate(-58.18 -155.41)"/><path class="cls-61" d="M585,223.56c-2.63.8-5.28,3.25-7.8-.37-.43-.62-1.61-.24-2.39.27-1.63,1.07-2.5.39-2.87-1.32l12.56.85Z" transform="translate(-58.18 -155.41)"/><path class="cls-59" d="M393.09,308.26c.07,5.71.19,11.42.19,17.14q0,37.67-.08,75.34l-17.81,3q0-46.32-.11-92.64c0-2.24.49-3,2.87-2.94C383.12,308.36,388.11,308.24,393.09,308.26Z" transform="translate(-58.18 -155.41)"/><path class="cls-61" d="M512.84,209.32c.44,3.12.18,6.35,1.3,9.34.61,1.65-.26,2.54-1.24,3.51a1,1,0,0,0-.5-.11A34.42,34.42,0,0,0,509.09,211C509.38,208.23,511.55,209.78,512.84,209.32Z" transform="translate(-58.18 -155.41)"/><path class="cls-97" d="M328.26,206.55c-3,.24-5.16-1.34-7.05-3.35a2.66,2.66,0,0,1-.66-3.35c.94-1.56,2.12-.63,3.23-.31a13.77,13.77,0,0,1,4.53,4.64,1.73,1.73,0,0,1-.06,2.32Z" transform="translate(-58.18 -155.41)"/><path class="cls-98" d="M323.79,179c-2.22.14-4.14,0-2.94-3.11l2.88-.18c1.81.34,5.94-2.08,3.7,3.09Z" transform="translate(-58.18 -155.41)"/><path class="cls-99" d="M328.25,206.5l.06-2.32,2.26-.8c4,3.86,1.91,8.31,1.52,13.44-1-2.7-1.1-2.72-.43-6.47a4.87,4.87,0,0,0-1.27-4.75c-.75-.68-.36.7-.76.92Z" transform="translate(-58.18 -155.41)"/><path class="cls-100" d="M327.47,212.45c-3.17.22-5.42-1.49-7.28-3.72a2.46,2.46,0,0,1-.08-3.42c1-1,1.73.25,2.56.66s2,.91,3,1.36C326.6,208.92,328.49,210.17,327.47,212.45Z" transform="translate(-58.18 -155.41)"/><path class="cls-101" d="M323,216.86c-1.26-1.1-3.25-1.46-3.63-3.46a2.14,2.14,0,0,1,.32-2.12c.74-.67,1.33.06,2,.38,1.66.82,3.35,1.58,5,2.37C328.55,219,324.46,216.22,323,216.86Z" transform="translate(-58.18 -155.41)"/><path class="cls-101" d="M327.36,222a5.57,5.57,0,0,1-6.18-1.93,2.25,2.25,0,0,1-.31-2.41c.57-1.18,1.43.34,2.15-.07C325.47,218.07,327.55,218.91,327.36,222Z" transform="translate(-58.18 -155.41)"/><path class="cls-61" d="M114.31,487.9c.3,2.6-.28,5.23,1.31,7.76.87,1.39.55,3.45-1.93,3.77q0-5.24,0-10.47Z" transform="translate(-58.18 -155.41)"/><path class="cls-61" d="M318.65,159.47a80,80,0,0,0,14.83-1.25c2.9-.43,3.92.23,3.69,3.1a44.13,44.13,0,0,0,.1,4.45c.65,5.09.36,5.55-4.6,6.69a3.58,3.58,0,0,0-2.14,1.25l0-.05c-3.36,1-6.76-.72-10.16.2-1.16.31-2.43.19-3.39,1.1-8.18,1.83-8.27,1.76-8.82-6.42-.07-1.11-.12-2.22-.22-3.33-.4-4.66-.41-4.65,4.47-5C314.52,160.08,316.66,160.34,318.65,159.47Z" transform="translate(-58.18 -155.41)"/><path class="cls-102" d="M304.56,159.67c2.49,1.46,1.79,3.65,2.05,5.58.48,3.54.81,7.1,1.17,10.66.07.7.21,1.61-.79,1.79-.77.14-1-.55-1.09-1.17C305.44,170.91,305,165.29,304.56,159.67Z" transform="translate(-58.18 -155.41)"/><path class="cls-61" d="M317,175c1.83-4.14,5.38-1.76,8.09-1.85,1.72-.06,3.62.45,5.46.55l-9.43,1.23Z" transform="translate(-58.18 -155.41)"/><path class="cls-103" d="M338.53,156.47a48.11,48.11,0,0,1,1.92,18.09C338.51,168.68,338.39,162.59,338.53,156.47Z" transform="translate(-58.18 -155.41)"/><path class="cls-61" d="M330.53,173.71c0-1.31.57-2.35,1.9-2.27,4.24.27,5.07-2.2,4.84-5.67.18,1,.32,1.92.54,2.86.87,3.69-.36,5.56-4.34,5.09Z" transform="translate(-58.18 -155.41)"/><path class="cls-104" d="M392.4,272.05H378c2.72-2.77,6.41-4.15,8.61-7.2a11.93,11.93,0,0,1,3.95-4.83c1-.62,2.48-1.1,2.39.69C392.69,264.49,393.49,268.31,392.4,272.05Z" transform="translate(-58.18 -155.41)"/><path class="cls-105" d="M392.4,272.05V259.92l-5.84,4.93c0-.31-.05-.62-.08-.93q4.22-10.76,8.41-21.51c.71-.11,1.07.07.73.85-.89,9.6-2.68,19.13-2.27,28.84.35.34.32.64-.08.92h-.75Z" transform="translate(-58.18 -155.41)"/><path class="cls-61" d="M412.19,189.28a4.84,4.84,0,0,1,0,3,10.49,10.49,0,0,1-1.08,1.47A3.19,3.19,0,0,1,408.2,195c-1.18-.27-.87-1.41-.73-2.16.21-1.16-.87-3.11,1.18-3.25C409.82,189.47,410.87,186.42,412.19,189.28Z" transform="translate(-58.18 -155.41)"/><path class="cls-106" d="M423,216.24l-1.32,2.09a12,12,0,0,1-2.84,3.31c-.6.57-1.27,1.33-2.19.63s-.56-1.51-.29-2.34c-.09-2.45-.84-4.93.15-7.32.6-1.48,1.4-2.35,2.78-.42A42.89,42.89,0,0,0,423,216.24Z" transform="translate(-58.18 -155.41)"/><path class="cls-107" d="M416.31,219.93c.3,1.55.51,3.17,2.42,1a32.58,32.58,0,0,1,2.9-2.6l0,1.63-4.85,4.2a5,5,0,0,1-1.23-4.2Z" transform="translate(-58.18 -155.41)"/><path class="cls-61" d="M290.67,515.94c2.68.87,3.27,2.33,1.46,4.66a6,6,0,0,0-.57,2.07C290.51,520.52,291.05,518.17,290.67,515.94Z" transform="translate(-58.18 -155.41)"/><path class="cls-108" d="M415,432.13c1.11-.67.17-2.34,1.42-2.94-.82,5.39,1.87,10.34,1.73,15.68A40.59,40.59,0,0,1,415,432.13Z" transform="translate(-58.18 -155.41)"/><path class="cls-109" d="M508.54,445.6l.75-1a61.77,61.77,0,0,1,1.88,14.6C509.49,454.8,509.28,450.15,508.54,445.6Z" transform="translate(-58.18 -155.41)"/><path class="cls-110" d="M503,449.41l.8,0,1.75,10.5A25.8,25.8,0,0,1,503,449.41Z" transform="translate(-58.18 -155.41)"/><path class="cls-111" d="M393.27,273c0-.31.05-.62.08-.92q10,0,20.08.09c1,0,2.37.39,2.26-1.44.93.54.76,1.44.74,2.29A229.37,229.37,0,0,1,393.27,273Z" transform="translate(-58.18 -155.41)"/><path class="cls-112" d="M459.55,277.41c-.42-7.05-2.21-13.89-3.11-20.87-.36-2.82-.94-5.61-1.47-8.4s-.67-5.47-3.63-6.93c2.52-1.7,2.88-.42,3.38,1.45,2.34,8.83,4.86,17.63,7.26,26.45.35,1.31.48,2.58,2.27,1.45.45.13.59.63,1,.82,3.32-.19,6.59-.17,10.4,2.55-6.44-1.68-12.22-3.94-15.21,3.51Z" transform="translate(-58.18 -155.41)"/><path class="cls-113" d="M436,189c-2.43.2-1.14,2.12-2.17,4,.44-3-2.81-1-2.41-2.81C431.86,188,433.87,188.2,436,189Z" transform="translate(-58.18 -155.41)"/><path class="cls-37" d="M415.27,201.58a8.09,8.09,0,0,0,4.7-2.34C419.5,202.06,417.87,202.73,415.27,201.58Z" transform="translate(-58.18 -155.41)"/><path class="cls-114" d="M252,352.74l-.88-.64c.29-1.61,1.74-1.65,2.85-2,4.89-1.33,7.67-4.46,9.19-9.3,2.67-8.53,5.58-17,7.61-25.69.3-1.31.62-2.71,2.12-3.29h.67a225.1,225.1,0,0,1-9.94,33.58C261.68,350.56,256.73,351.69,252,352.74Z" transform="translate(-58.18 -155.41)"/><path class="cls-115" d="M231.56,371.5H195.27v-.6H231.5Z" transform="translate(-58.18 -155.41)"/><ellipse class="cls-116" cx="164.87" cy="205.43" rx="40.2" ry="0.32"/><ellipse class="cls-117" cx="165.37" cy="210.56" rx="39.9" ry="0.33"/><path class="cls-118" d="M434.49,237.17c.55-1,1.53-.74,2.32-.65,3.23.33,6.08-.2,8.25-2.91,1.24-1.55,2.14-1.29,2.68.65,1.23,4.37,1.08,8.85.72,13.24-.31,3.69-7.2,6.5-10.25,4.44-1.3-.87-2.85-1.48-3.71-2.92a2.17,2.17,0,0,1,1-.48c1.18-.08,2.09.63,3.08,1.1,3.62,1.7,7-.18,7.49-4.13.12-1,0-2,.07-2.95.25-2.66-.8-3.86-3.58-3.76-2.32.08-4.68.33-7-.36A2.38,2.38,0,0,1,434.49,237.17Z" transform="translate(-58.18 -155.41)"/><path class="cls-119" d="M434.49,237.17l.71.78c1.75,3.63,1.37,7.32.31,11l-1,0A43.15,43.15,0,0,1,434.49,237.17Z" transform="translate(-58.18 -155.41)"/><path class="cls-120" d="M465.24,271.38a1,1,0,0,1-1-.82c1.74-1.71,3.77-2.08,6.88-1.49C468.83,270.44,466.57,269.83,465.24,271.38Z" transform="translate(-58.18 -155.41)"/><path class="cls-121" d="M564.47,237.19c6.6-.65,13,1.1,19.5,1.64,1.84.16,3.7.28,5.51.62,6,1.1,5-.52,4.79,5.6.52,3.28-.12,6.51-.39,9.76-.09,1.09-.25,2.21-1.44,2.76a1.53,1.53,0,0,1-1.22-.28c-1-3.56,0-7.08.36-10.59.45-4.13.12-4.79-4.07-5.25-6.38-.71-12.76-1.46-19.13-2.33a9.46,9.46,0,0,1-3.58-.83A.82.82,0,0,1,564.47,237.19Z" transform="translate(-58.18 -155.41)"/><path class="cls-61" d="M592.25,257.33q1-6.15,2-12.28c2.23,3.77,1.44,7.94,1.49,12a1.88,1.88,0,0,1-1,1.42c-1.49.53-2,1-.93,2.58,1.18,1.75.12,2.71-1.72,3A5.45,5.45,0,0,1,592.25,257.33Z" transform="translate(-58.18 -155.41)"/><path class="cls-122" d="M592.25,257.33l-.12,6.69q-.79,5.22-1.58,10.44l-.76-1.67c-1.34-1.66-.78-3.52-.49-5.32.35-2.24.54-4.42-.88-6.4a3.64,3.64,0,0,0,0-.66,26.87,26.87,0,0,1,3.13-3.09A2.35,2.35,0,0,0,592.25,257.33Z" transform="translate(-58.18 -155.41)"/><path class="cls-31" d="M564.47,237.19a2.26,2.26,0,0,0,0,.45c-3.77,1.6-3.63,5.08-4.09,8.32-.26,1.73.41,3.84-1.71,4.95l-.75-1.8c.36-3,.75-6.08,1.09-9.13C559.51,235.66,560.22,235.29,564.47,237.19Z" transform="translate(-58.18 -155.41)"/><path class="cls-61" d="M558.68,250.91c.4-2.93,1.21-5.86,1.12-8.77-.12-3.62,1.5-4.68,4.68-4.5,8.71,1.06,17.42,2.21,26.15,3.12,2.14.22,2.6.82,2.31,2.91-.63,4.53-.94,9.1-1.39,13.65.16,2.24-1.15,3-3.13,3.09-4.41,1.66-8.36.59-12.34-1.65a52.25,52.25,0,0,0-15.47-6C559.48,252.49,558.76,252.12,558.68,250.91Z" transform="translate(-58.18 -155.41)"/><path class="cls-123" d="M588.42,261.07c1.68-.12,2.72.1,2.33,2.34-.53,3.09-.66,6.25-1,9.38-.08,3.58-2.06,3.41-5,3.37-7.19-.12-12.73-4.56-19.2-6.48a5.34,5.34,0,0,1-2.34-2.3c-.88-1.35-1.71-3.17-.67-4.46.79-1,2.55-.39,3.83.16C574.09,266.37,581.38,265.13,588.42,261.07Z" transform="translate(-58.18 -155.41)"/><path class="cls-124" d="M582,262.5a13.59,13.59,0,0,1-9.92,1c-2.75-.69-5.48-1.47-8.22-2.2-.56-.15-1.59-.08-1.47-.77.67-4-2.78-2-4.14-3-.39-3.6,1-4.26,4.41-3.3C569.24,256.13,574.93,260,582,262.5Z" transform="translate(-58.18 -155.41)"/><path class="cls-125" d="M395.62,243.26l-.73-.85a39,39,0,0,1,2.38-9.68c1.35.68.07,1.86.71,2.6,1,.1,1.33-1.52,3.06-.87A13.35,13.35,0,0,0,395.62,243.26Z" transform="translate(-58.18 -155.41)"/><path class="cls-126" d="M213,282.6l1.72-.71c1.2,1.41,2.35,2.86,3.61,4.21a2.78,2.78,0,0,0,4.28.21c.15.12.3.24.44.37.4,1.06-.14,1.92-.61,2.79-6,7.11-4.75,16-6,24.31a6.21,6.21,0,0,1-.4,2.52l-.69,0c-2.16-.35-1.87-2.19-1.69-3.43,1-7.14-.2-14.68,3.81-21.28.83-1.37.42-2.54-.71-3.63C215.17,286.45,213.55,284.89,213,282.6Z" transform="translate(-58.18 -155.41)"/><path class="cls-94" d="M213,282.6c2.45,1.52,3.47,4.42,6.07,5.93,1.66,1-.07,2.45-.68,3.5-4.32,7.49-3,15.79-3.57,23.82,0,.15.34.32.53.48,1.27,2.3,3.52,1.41,5.35,1.46,10.69.29,10.69.25,11.11-10.34a23,23,0,0,1,.23-3.72c1-4.67,1-9.14-2.18-13.09-1.25-1.56-.93-2.46.9-3.34,7.69-3.67,12.57-9.47,13.13-18.54,7.27,3.65,15.3,4.38,21.94,8.84,6.27,4.21,10.45,13.94,9,21.45-.82,4.24-1.31,8.54-1.95,12.81-3,9.88-5.77,19.84-8.9,29.69-1.83,5.75-5.44,8.51-10.83,9.82a19.08,19.08,0,0,0-2,.73c-4.46.89-7.49-1.84-10.71-4.18C229.52,340,219,331.76,209.57,322.08a33,33,0,0,1-6.07-8.9c-3.06-6.43-2.56-12.82.9-18.91A59.67,59.67,0,0,1,213,282.6Z" transform="translate(-58.18 -155.41)"/><path class="cls-127" d="M216,316.3c-1.47-3.29.12-6.56.17-9.84.1-6.47,1-12.79,5.84-17.77,1.46-.23,2.49-1.37,3.84-1.82a20.84,20.84,0,0,1,4.7,18.62c-.62,2.87-.46,5.92-.53,8.89,0,2-.76,2.88-2.9,2.67C223.47,316.69,219.75,316.54,216,316.3Z" transform="translate(-58.18 -155.41)"/><path class="cls-128" d="M225.89,286.87c-.85,1.51-1.62,3.19-3.84,1.82l1-2C224.08,285.55,225.12,284.14,225.89,286.87Z" transform="translate(-58.18 -155.41)"/><path class="cls-129" d="M435.51,249c-.77-3.66-.24-7.35-.31-11,1.48,0,3-.12,4.45-.11,8.23,0,8.73.66,7.47,9-.47,3.09-5.76,5.51-8.41,3.86C437.68,250.09,436.58,249.56,435.51,249Z" transform="translate(-58.18 -155.41)"/><path class="cls-130" d="M572.17,245.24c.07,2.74-1.37,4.26-4,4.34a4.25,4.25,0,0,1-.24-8.5A3.84,3.84,0,0,1,572.17,245.24Z" transform="translate(-58.18 -155.41)"/><path class="cls-131" d="M220.45,306.51c.72.05,1.19.06,1.66.13,1,.16,2.12.48,2.47-.83.25-.92-.54-1.51-1.23-2.09-3.21-2.73-3.19-3.25.05-5.59,1-.74,1-.74,2.89,1.47-1,.88-2.92-1-3.47.88-.48,1.64,1.28,1.86,2.19,2.57,1.65,1.29,2.08,2.72.53,4.4C223.75,309.39,222.09,309.7,220.45,306.51Z" transform="translate(-58.18 -155.41)"/><path class="cls-132" d="M568.24,242.4c1.87.23,3,1.3,2.78,3.21a2.76,2.76,0,0,1-3.28,2.73c-1.83-.15-2.58-1.27-2.57-3C565.19,243.36,566.26,242.43,568.24,242.4Z" transform="translate(-58.18 -155.41)"/><circle class="cls-133" cx="361.91" cy="37.35" r="1.48"/><circle class="cls-133" cx="350.98" cy="36.13" r="1.48"/><path id="glasses-2" data-name="glasses" class="cls-72" d="M404.22,189.44c.68-.53,1.09-1.53,2.09-2.1.75,1,.39,1.95.38,2.85,0,3.22,0,3.26-2.69,1.93A10.57,10.57,0,0,1,404.22,189.44Z" transform="translate(-58.18 -155.41)"/></svg>